/* XPM */
static char *result[] = {
/* columns rows colors chars-per-pixel */
"64 64 103 2 ",
"   c #EEBC77",
".  c #DFC85F",
"X  c #ECD34F",
"o  c #DEC56C",
"O  c #DEC473",
"+  c #EAD36F",
"@  c #EDDA6D",
"#  c #EAD47E",
"$  c #ECD879",
"%  c #F0629F",
"&  c #EF79A3",
"*  c #EDBEAE",
"=  c #EEA0B7",
"-  c #EAAEB7",
";  c #EEADBC",
":  c #EDB2BE",
">  c #ECB9BD",
",  c #E3CD85",
"<  c #E0CA8C",
"1  c #ECD880",
"2  c #E6D389",
"3  c #EAD58E",
"4  c #E4CE97",
"5  c #EDC39A",
"6  c #E1C99E",
"7  c #ECCA98",
"8  c #E9D694",
"9  c #EDDC96",
"0  c #E6D19C",
"q  c #EAD69D",
"w  c #ECDB9C",
"e  c #EDCEAD",
"r  c #E9D6A5",
"t  c #ECDAA5",
"y  c #E7D4A9",
"u  c #E9D5AB",
"i  c #ECDBAC",
"p  c #F0DDAE",
"a  c #EEC5B7",
"s  c #E3CEB9",
"d  c #E7D4B3",
"f  c #EAD6B3",
"g  c #ECDBB3",
"h  c #E5D3BD",
"j  c #EAD6BA",
"k  c #E7D9BA",
"l  c #EBDBBC",
"z  c #F2D1BA",
"x  c #EEE0BA",
"c  c #F0E3BC",
"v  c #EFB5C0",
"b  c #EDBBC2",
"n  c #D7DBD3",
"m  c #DDDBD4",
"M  c #DCDDDB",
"N  c #EEC4C6",
"B  c #EECBC7",
"V  c #EFC3C8",
"C  c #EECCCA",
"Z  c #E6D6C4",
"A  c #E9D6C5",
"S  c #E7D8C7",
"D  c #EBDCC4",
"F  c #E3D7CB",
"G  c #EDD5CC",
"H  c #E6DACD",
"J  c #EBDCCD",
"K  c #F0D9C7",
"L  c #F1DDCB",
"P  c #EED6D1",
"I  c #E4DED4",
"U  c #EDDED1",
"Y  c #ECDEDA",
"T  c #F1D4D2",
"R  c #F0DCD3",
"E  c #D5E2DE",
"W  c #DAE2DC",
"Q  c #EEE1C5",
"!  c #E7E4CE",
"~  c #EEE1CD",
"^  c #F1E2C6",
"/  c #F0E2CE",
"(  c #EEE1D4",
")  c #E6E8D6",
"_  c #EDE9D6",
"`  c #E5E2DB",
"'  c #EEE3DA",
"]  c #EFE9DA",
"[  c #F0E3D6",
"{  c #F0E5DA",
"}  c #F1E9DC",
"|  c #ECDFE1",
" . c #C7E2E2",
".. c #CAE2E2",
"X. c #D7E3E3",
"o. c #EEE3E3",
"O. c #EBEEE5",
"+. c #EEE2EB",
"@. c #F1E5E2",
"#. c #F2E9E2",
"$. c #F2E7EB",
"%. c #F1E9EB",
"&. c #EEF1E6",
/* pixels */
"( J J U J D U ( J ( [ ( J D J D D J ( U ( ( D Q [ ( ( { { [ ( ( J [ [ ' ~ ( ( [ [ ~ ( ( ( ( [ [ ( ' } { ( J U D J U U ( ( D D [ ",
"J ( ' ( D Z J J J J J U J ( J D ( ( U ( J ( U ( ( ( ( ( l D ( ( [ [ ( ( D ( { [ ( [ [ { { { } { ( { [ ( { ( [ [ ( U ( U ( ( ( ( ",
"J ( D J ( ' J ~ ( ( J J U ( ' ' { ( ( ( ( [ ( ( ( ( { ~ Q ( ( ( { { ( [ ~ { { { { { { { { [ { ' { [ { [ ( [ [ ( [ ( ( U ( ( ( ~ ",
"[ [ D / { ( [ { ~ J { ( ( [ [ ( ~ J ( { ( ~ [ ( ( { { { ' { { } ~ / { { { { ( ( ( [ { [ { { [ [ ( [ _ ( [ [ U [ ( ( [ ( { ' ( / ",
"J [ ( ( ' ( { J l L ' U { { ' J Q ' [ { [ [ [ { { { { [ [ { [ { J l ( ( U D [ ( { ' ~ ~ { { { { { [ ( { [ [ U J ( ~ ( ( ~ / [ ] ",
"~ [ [ ( D ( [ ~ [ { ( ( { { [ [ ( ' { [ { { { } { { [ { ( ( { [ ( U J { D d { J l { [ ~ { [ { { } { { ( ( ( ( ( [ ( [ R J [ / h ",
"( [ [ [ [ l l [ ( ( { { D Q [ [ { @.( ( ( ( ( ' [ { ( { { [ [ [ [ { { { ( ( [ L l / @.{ ( ( [ Q J [ ' { ( [ ( { [ { { [ { U ( / ",
"U ~ [ J J [ / [ ( [ { { D D ~ { D l [ ( { { ~ ~ { { ( { { { [ } { [ / ( ( ( ( ( @.{ [ ( ( { J g ^ { } { ( Y ~ ~ ( D D ( R [ J Y ",
"L ( [ l D ( ~ U { [ D D [ ( [ { D h @.l l { [ [ { [ { } { { { [ ( [ ~ [ ( { } ( ( [ { { ( ( ( ' { ' [ [ ( J l J ( J D U J ( { i ",
"{ [ Y [ @.D j ( } [ l ~ { [ [ ( { ( ( ~ ^ [ { [ U [ / D U ( { { [ [ { [ [ ( ( ( [ ( ( ( ( R O.' G U ( J Q ~ ( ( ( { ' U { { J D ",
"U U Y J D / G [ ( ( } { { Q ~ ( ( [ ( { { ' ( ( { [ l / { { { ' [ [ [ { [ ( ( ( J ( ~ ( { @.z Q ` l r D ( ' ( ( J [ ( { [ U Z [ ",
"U U { D t U ( ( ( ( ( ( ( { ( [ [ { { ( { ( { { ( U { R { { { [ U ( ( ' / [ { [ J Y ' ' { l d U { [ Q ( ' ( U J U [ J ~ U J U U ",
"[ } [ D { ( ( [ ( U ( ( { ' [ { { ( J ( ( ( U ( ( ' { Y I D j J [ { { [ { ( } [ J D g [ } l ~ ] [ { Y J J D J S H ( ~ ( ' ( ( ( ",
"[ J J J { { U U ( ( ( [ ( [ [ ( ~ [ ( ( J J ( ( } L e ! ' g t [ { { ( ~ U U J J ] / i [ #.{ { ( U U [ J H J ( ( ( ( ( U U U ( ( ",
"` U J U ( U J J ( { { U ( ( [ { ( [ #.[ J ( { { [ g J [ { { ' ( J ( ( [ ( ( ( Y B T %.{ [ [ J J U [ [ U ( ( ~ ( ( U J J J J J U ",
"( ( [ Y ( ( ( ( U [ ( ( [ { { [ [ ( [ U U l p { { J [ [ ( ( ~ J J ( [ [ ~ ' ~ g B U ] Y [ [ J U [ [ { U J J U J J U J J ( J U Y ",
"J J U U ( ( ( ' { ' [ ( ( ( ~ ( U J J [ [ K c { { { ( J U ( ( ~ ( { ( ~ J Y J Q _ ( D f J Y { ( [ { [ ( ( ( U D ~ { U J J U D l ",
"J J J J J ( @.} { ( J J J U [ [ ~ { [ A V Y #.[ { ( J J ( ( ( ( { U J U ( ( U ( U U u u / { ( [ [ [ { $.( J U ( ( J J J J J J J ",
"( U U J J / g J J S S D J [ } [ J ( l j Y ( o.( ( ( ( ( ( { { { J G J ~ J ( ( ( ( U ' @.( [ [ ] ( ' / i J J J J ( J U J U J ( U ",
"J J U l D [ f > G H J ( [ } _ U ( J ( ( ( ~ u u ( [ [ ( ( { [ ( ( ( ' ( ( ' ( G G ( U l ~ { U v C ] ~ u J U ( U U ( ( ( ( ( ( ( ",
"J J J U [ ( U S S J ( ( R G J J ( ( ( ( U J g l ( ( ( { ' [ ' ( Y G J [ } [ ( ( ( ) ~ l #.%.R C U ( { @.( J J ( J J J U ( ( ( ( ",
"U ( ( ( ( U J J J U ( ( U G J J ( [ ( G J U ' @.( ( ( P U } D e 5 7 l [ { { ( ( J N Y #.9 t #._ } { { J J J J J G J ( ( ( U ( J ",
"U ( ( J [ [ Y [ ( J J ) ' ( ( [ { ( ( J J ( J l ( } G v U { J j j ^ } } ( ( ( [ G V { { 9 i @.{ [ ( { ( U J J J J ~ ( ( ( ( J ( ",
"J ( ( ( ( ( J U ~ J J N * Q ' } { [ ( ( ( ( J ~ @.{ R ( [ [ { ] o.{ { [ ( ( ( [ [ ] ( / ( o.J [ ( ( { { [ ( J ~ ( ( ( J J U J ( ",
"( ( J ( J J Z Z J U ( a   x @.{ [ ( ( ( C V #.~ $ x } ( { { ( ( ( ( J ( { ( ( ( ( [ #.D u U U [ { } { [ ( U U U J ( U J ( U ( ( ",
"( ( J J U U U ( ( U U ) &.{ { ' ( ( ( ( R R ' [ c / { { [ { [ ( ( J D ~ ( U U ( _ } { { ' [ { { { [ [ U J J J J J J U J ( ( ( J ",
"J U ( ( ( ( ( U ( U ( ( ( ( ( { } ' ( ( [ _ } l l Y ~ ( ( { { J Z h k S S l ( U T } Y J ( [ { [ [ [ ( I F Z J J ( J J ( ( ( ( ( ",
"J ( ( J ( ( U J J ( ( ' [ [ J Q ( U J ( ( { #.D l ' ( { } { [ J Z J U ( D l } T C ( J U Y R R R J [ U I J J ~ [ J ( ( ( ( ( ( U ",
"( ( ( ( ( U ' Y J J ( ( J J h h Z d J { } { ( ( Y ( { { } { [ ( ' [ ' ( ( { ( [ ( J ( U L G L L R [ ~ U [ ( U J ( ( ( ( U Y D l ",
"( ( ( ' ( J t g ( ( ( J s s D Y D i } T P } J J ( G T R R [ _ ( ( ( D D ( [ [ ` Y J D j D J ~ ^ ^ J [ ( U ( Y [ ( ( U U H k g B ",
"( ( ( D U D # i ' ( ( U U ( { { ' @.( G G ( J ( [ V b ; B ( ' ( _ U J [ { ( ( ( ( U h r D ( [ p g U U ( ( ~ ( ( ( U J S J u x P ",
"J U Y f D J Y o.( ( { ` ` { ' J ( ( ( ] ( J ' U J ! [ @.{ ( ( ( Y U ( ( ( U ( ( ( ( / ( [ #.#.g D ( { ( J l ~ ( J J J J ( Y ' _ ",
"U D t J b b ( [ { [ ( J U l D ( ' ( ( ` Y U d l J Y ( 9 l ' ( ( J ( J U ( ( J J ( ( ' { ] l o j o.J ~ J J J ( U J J J ( ( U ( ( ",
"J J g ~ P ( ( { %.$.J J U D / ' [ ( U [ ' 4 o J { @.~ + g @.( ( J J U ( U J J ( ( ( [ ( ( h 6 J U G J J J U ( ( U ( U U U ( J ( ",
"U Y ( ( ( { ' [ 8 , Z U ( ( ( U ( ( ( ( ( D ' { ' [ i i [ [ ( ( J U ( U J J U U ( ( J ( U { @.{ [ [ ' ' U ( ( U U H _ ] _ U ( ( ",
"( J ( ( ( ( Y d O < J ( U U J U ~ U J ( ( { { ( { 0 O Y ' D J J ( ( J S J J ( ( J ( U J [ [ ( { ( ( ( ( ( U J J J ( U ; b _ ( ( ",
"( ( U U ( J J J +.@.U J J ( ( ( J U U ( { ( U ( ( J U Y J ( ( [ ( ~ l D J ( ( J J J J J ( [ ( [ ( ( ( ~ J J U J o.o.G : B ( ( ~ ",
"( J ( ( ( J J J U ( U U J U J J U J J U ( U J U ( ' ( ( [ [ [ [ ( J J I H U J U J ( J J ( ( { ( ( ( ( ( J ( ( Y 1 X g &.( U J U ",
"= G _ ( J J U ( ( ( ( J ( Y A J J J ( ( J J J J ( [ ( ( Y [ [ ( J J ' X.I / ( ( ( [ ( [ ( ( ( ( ( { [ ( ( ( U J q 9 J ( U J J ( ",
"G ( ( J J J ( [ ( J J U l g J K J U ( J J J S J ( { ' ( ( [ { I J U [ R [ ( ( ( ' [ { { ( { [ ( [ ( ( ( J J Z S | o.( J J J U U ",
"( J J J J ' @.( U J U [ D K ` E U J J ( ( ( U ( ( ( [ [ ( ( Q g D ( ' [ ( { ( ' ( { ( ( ( ( ( ( U J [ J J J J J ( U J A S ..E J ",
"( J K J ' i d U J L W n G [ ( ` ( ( ( ( [ [ [ { { [ ( ( ' { x i Q ( ( ( ( ( ( ( ( J U ( ( ( ( ( [ [ U Y U U U U U S S J F m J R ",
"J J W ` J 0 u J J J I H k x { [ ' ( ( ( [ { [ ( [ ( [ ( ( ( ( ' ( ( ( ( ' ( J J J J J U ( ( ( ( ( [ ( ( ( U J H J J J S J L [ ( ",
"A m  .I K o.{ J J J Y p @ w @.Y ( { { [ ( J J ( ( [ U U ( ( ( J ( ( ( ( J J Z J S G J ( J U ( U [ ( ' ( ( U J J J J J J ( { ( J ",
"G A K / ' U J J J ( { / ~ ' ( ' ' ( J J J J J J [ [ U ( ( ( ( ( ( ( U J S Z Z Z Z J J ( ( ( ( ( ( [ Y J U J U J U J ( ( J J S J ",
"J J { { U J Z J ( [ { ( Y ( { ] J Z h S J J U J J ( U [ ( ( ' ( ( U J S S S S D J U U ( ( ( J J U ( ( ( U J H U ( ( ~ J D J U ( ",
"( ( ( J A J U [ o.' ( ( [ [ ( S Z h Z S Z S U ( ( ( [ ( ' ( ( ( ( J J S J J S Z J ( ( J J ( J S ( ( ( U J J U ( ( ( J Z U ( ( ( ",
"( J S J ( ( { [ q w ' ( U ( S h S Z G S S J ( ( ( J U [ ( ( ( ( J U ( U U J S J J J U J J J ( ( ( [ [ U J J ( ( U U ( { ' ( J J ",
"Z S ( ( ( ( { Y i q g U G S Z S J S S J J Y J J ( J J J ( ( ( ( ( [ [ Y J h A U U w g Y [ ( ( [ { ( ( U H J J J ( ( ( J J S H J ",
"U ( ( U J Y ~ J Y 8 2 U Z S U ( U J S J ( ' ( J J ~ J J ( ( [ ( ( ( J S h Z J J U J ~ U ( [ ( ( ( ( [ J Y o.J ( ( J S G J J J U ",
"( ( U J J S J J S U Y J ( { ( ( J Z S J D g J J U ( ' ( ( ( ( ( ( J J S J U ( ( U U G C J U ( ( U U ( { w t Y J S J J J J ( ( U ",
"S J S J J J A J J Y U ( ( ( ( J Z h S ( D t D Y ( ( ( ( ( ( ( Y ~ ( ( ( ( U U [ U G G K J Y ( ( U ( ' { 8 y G J J U J J U U U ( ",
"J J J ( ( U U U U ( ( ( [ U J Z Z J ( ( ' Y ( ( { ( ( ( ( ( U ~ U ( ( ( J U J J U J ( ( U [ ( [ [ { ( J o.Y J U U ( ~ U ( ( ( / ",
"J ( J ( ( ( [ U J ( ( J U J J J ( ] J B J S Z ( { ( ( U U J ( ( ( J J J J J J ( ( ( J J U ( [ ( ( ( ( Y ( J J U J U U U J U U I ",
"U U ( ( ( ( J ~ J J ( ( U ( [ [ ) : % - ! U J U ( ( [ ( ( [ [ ( J J J J ( ( ( [ ( ( ( ~ ( [ ( U G C l i j C J U J J U J U / Y M ",
"U ( U J [ J J ( ( [ ( J J J J U ~ N N ~ ( ( ( J ( ( [ [ ' _ ( ( U J J ( ( ( ( ( ( ( ( ' [ ( ( U G G ^ l Z A J J J J J J U J ( L ",
"~ J J I M U J ( J J Z J J J J J U ( _ ( ( ( J ~ ( ( [ ( U T L J J U U ( U J ( ( ( ( ( ( ( ( ( [ ( ( ' ' ( ~ J J U U J ( J J ( ( ",
"J ( R U m ( [ J J A J J S J U J ( ( ( ( ( ( ( ( ( ( ( ( G B U U U J J J J J S J J J U ( ( [ [ ( ( U J U ( R J J J J J ( ( ( J J ",
"( J J [ [ ( J J J J J J U ( ( ( ( ( ( U ( ( ( { ( ( ( ( Y [ ( U U U U J S J S J J J J ( [ { ( U J ( U ( U U J I Y ~ U U J J A J ",
"U U [ ( J J J J U Y J ( U U ( J J U U J ( ( ( ( ( ( [ [ ( J U J U U U U U U J U U ( [ ( ( ( U U ( J U U J J I ..I J Y J Z S J J ",
"( U J J J J ( Y J D U J J J U J J J Z J J J J ( [ ( ( J U ( U ( U ( U ( ( ( ( ( ( ' ( ( ( ( L ( ~ J J ( J U J S J ( D g J U J U ",
"J J Z Z J ( U ' 3 2 Y J J J U J J J J S J J ( ( ( ( J ( J ( ( ( ( ( ( [ _ ( ( ( ( ( J ( ( J ( J U J J ( ( ( J U U D k D J J J J ",
"A S J J U U U J l J J J U J J ( U U U ( [ ( Y / ' +.$.@.J J J U ( ( [ J A G ( ( ( J ~ ( J D D D J ( ( ( J J Y ' L D J J J D J J ",
"D U J J U U J H U U ( ( ( ( U ( ( ( [ ( ( ( U { J 8 . 2 Y ( J J U U [ > & > ) ( U U ( ( l u u k J ( ( ( J ~ D l H ` J k d u j l "
};
