/* XPM */
static char *_646ffeaa5834983d3b6f0d5b805a401nWoPKg3PSw1hAIOA[] = {
/* columns rows colors chars-per-pixel */
"40 40 199 2 ",
"   c None",
".  c #A04CAC",
"X  c #A14CAC",
"o  c #A14CAD",
"O  c #A14DAD",
"+  c #A24EAD",
"@  c #A14DAE",
"#  c #A24EAE",
"$  c #A24FAF",
"%  c #A34FAF",
"&  c #A755B3",
"*  c #A957B5",
"=  c #AA58B5",
"-  c #AC5BB8",
";  c #AE5DB9",
":  c #AE5DBA",
">  c #AF5FBB",
",  c #B05FBB",
"<  c #B364BF",
"1  c #B465C0",
"2  c #B768C2",
"3  c #B869C3",
"4  c #BA6BC4",
"5  c #BD6FC7",
"6  c #BE70C8",
"7  c #BF72C9",
"8  c #C175CC",
"9  c #C77CD1",
"0  c #C97ED3",
"q  c #C97FD3",
"w  c #CB80D4",
"e  c #CC82D5",
"r  c #CE84D7",
"t  c #CE85D8",
"y  c #CF86D9",
"u  c #CF89DB",
"i  c #D188D9",
"p  c #D188DA",
"a  c #D189DB",
"s  c #D289DB",
"d  c #D38BDD",
"f  c #D28EDE",
"g  c #D38FDE",
"h  c #D48DDE",
"j  c #D58DDE",
"k  c #D58EDE",
"l  c #D68EDF",
"z  c #D78FE0",
"x  c #D790E1",
"c  c #D890E1",
"v  c #D990E1",
"b  c #D891E1",
"n  c #D991E1",
"m  c #D892E1",
"M  c #D992E1",
"N  c #D891E2",
"B  c #D991E2",
"V  c #D892E2",
"C  c #D992E2",
"Z  c #D893E2",
"A  c #D993E2",
"S  c #D992E3",
"D  c #D893E3",
"F  c #DA93E3",
"G  c #D894E2",
"H  c #D894E3",
"J  c #D994E3",
"K  c #D895E3",
"L  c #D995E3",
"P  c #D895E4",
"I  c #D995E4",
"U  c #D896E4",
"Y  c #D996E4",
"T  c #D897E4",
"R  c #D997E4",
"E  c #D997E5",
"W  c #D898E5",
"Q  c #D998E5",
"!  c #D999E5",
"~  c #D998E6",
"^  c #D899E6",
"/  c #D999E6",
"(  c #D89AE6",
")  c #D99AE6",
"_  c #D99BE6",
"`  c #D99AE7",
"'  c #D99BE7",
"]  c #DA9AE7",
"[  c #DA9BE7",
"{  c #D99CE7",
"}  c #D99DE7",
"|  c #D99EE7",
" . c #D99DE8",
".. c #DA9CE8",
"X. c #DA9DE8",
"o. c #DA9DE9",
"O. c #D99EE8",
"+. c #D99FE9",
"@. c #DA9EE8",
"#. c #DA9EE9",
"$. c #DA9FE9",
"%. c #D9A0E8",
"&. c #D9A0E9",
"*. c #D9A1E9",
"=. c #DAA0E9",
"-. c #DAA1E9",
";. c #D9A0EA",
":. c #D9A1EA",
">. c #DAA1EA",
",. c #DAA1EB",
"<. c #D9A2EA",
"1. c #DAA2EA",
"2. c #DBA2EA",
"3. c #DAA3EA",
"4. c #DAA2EB",
"5. c #DBA2EB",
"6. c #DAA3EB",
"7. c #DCA1EB",
"8. c #DAA4EB",
"9. c #DAA5EB",
"0. c #DAA6EB",
"q. c #DAA3EC",
"w. c #DAA4EC",
"e. c #DBA4EC",
"r. c #DAA5EC",
"t. c #DBA5EC",
"y. c #D9A6ED",
"u. c #DAA6EC",
"i. c #DAA7EC",
"p. c #DAA6ED",
"a. c #DBA6ED",
"s. c #DAA7ED",
"d. c #DBA7ED",
"f. c #DDA6EC",
"g. c #DAA8EC",
"h. c #DAA8ED",
"j. c #DBA8ED",
"k. c #DAA9ED",
"l. c #DAAAED",
"z. c #DBA8EE",
"x. c #DBA9EE",
"c. c #DAA9EF",
"v. c #DBAAEE",
"b. c #DBABEE",
"n. c #DBABEF",
"m. c #DAACED",
"M. c #DAACEE",
"N. c #DBADEE",
"B. c #DBACEF",
"V. c #DAADEF",
"C. c #DBADEF",
"Z. c #DBADF0",
"A. c #DBADF1",
"S. c #DBAEF0",
"D. c #DBAFF0",
"F. c #DBAEF1",
"G. c #DBAFF1",
"H. c #DBAFF2",
"J. c #DDAEF0",
"K. c #DCAFF0",
"L. c #DCAEF1",
"P. c #DBB0F0",
"I. c #DBB1F0",
"U. c #DBB0F1",
"Y. c #DBB1F1",
"T. c #DBB2F2",
"R. c #DBB3F2",
"E. c #DCB0F1",
"W. c #DCB0F2",
"Q. c #DCB1F2",
"!. c #DCB3F3",
"~. c #DBB4F1",
"^. c #DCB4F3",
"/. c #DCB7F3",
"(. c #DBB3F4",
"). c #DBB4F5",
"_. c #DBB7F6",
"`. c #DCB4F4",
"'. c #DCB7F5",
"]. c #DCB8F4",
"[. c #DCB9F4",
"{. c #DCB8F5",
"}. c #DCB8F6",
"|. c #DDB9F7",
" X c #DCBAF7",
".X c #DDBAF7",
"XX c #DBBCF9",
"oX c #DBBEFA",
"OX c #DCBDF8",
"+X c #DDBCF9",
"@X c #DCBCFA",
"#X c #DCBDFA",
"$X c #DCBEFA",
"%X c #DCBFFB",
"&X c #DBC3FD",
"*X c #DCC1FC",
"=X c #DCC2FC",
"-X c #DCC2FD",
";X c #DCC3FD",
/* pixels */
"                                          +X|.'.|.OX                            ",
"                                    |.n.<.} ) E ) ) 8.W.                        ",
"                                  T.} h h v G v v v v G n.                      ",
"                                L.g 3 - < d v v v v x G v n.                    ",
"                              W.u : o $ . 7 v G x v D w.w.) F.                  ",
"                            W.g : o o o $ 9 G v D v <.;X&X_.$.'.                ",
"                          ^.) 6 o o $ . < h v G v v q.&X&X&XF.$.|.              ",
"                          $.x 1 o o . & 9 m m v E v ) +X;X&XXXW <.              ",
"                        V.G v 8 % o < w v v v G x v v Z.&X;X;Xw.W F.            ",
"                      |.} l r r w 0 d v G v E v G v x W (.&X;X_.v f.            ",
"                      n.x 5 $ 2 v x h v v G E v v E v v ) XX;X@X) <.            ",
"                      <.x < = w v 4 : i E v v v G v v v v q.;X;X$.<.            ",
"                      <.v d d v d & o q G v D v v E v H x ) XX;X7.7.            ",
"                      n.G v v G g = * d v v v E v v G v v <.;X;X7.f.            ",
"                        <.v v G x y r v v E E v G v G v x _.;X+X$.B.            ",
"                          ) x v v v G v G v v v v E v v } +XXXw.<.              ",
"                        n.x v G H v x v v v D G v E v v H <.) )                 ",
"                        n.E v G $.} ) G v v v x v v v x H H }                   ",
"                          n.) v v ) $.<.$.) E E G v v E } L.                    ",
"                            W.<.$.G v v E ) ..$.E v v ) ) V.                    ",
"                            n.<.F.q.w.<.} ) G D v G G ) <.                      ",
"                            ) <.n.x w.$.L.  `.f.n.L.L.                          ",
"                          W.G I.8.x w.E V.  n.G w.                              ",
"                          <.) [.} E 8.)     ) G                                 ",
"                        v.G q.|.E ) <.}   n.v 8.                                ",
"                      B.E E W.v.v $.) 8.  $.G W.                                ",
"                    V.) v <.  <.v 8.) 8.~.G }                                   ",
"                  V.) v G W.W.G ) F.H n.V.v <.                                  ",
"                V.) m x n.[.) x 8.T.x V.V.v n.                                  ",
"              W.} v v 8.  <.v E /.n.G I.K.E V.                                  ",
"              } v x 8.  n.x v n.  8.E T.  ) V.                                  ",
"            8.v ) w.  F.G v $.    8.G     <.<.                                  ",
"            V.w.      } v G T.    n.G     n.)                                   ",
"                    8.v H n.      8.)       E n.                                ",
"                  n.H G w.        8.)       ) )                                 ",
"                  n.G 8.          w.)       ) )                                 ",
"                                  B.$.    V.v )                                 ",
"                                    T.    <.v $.                                ",
"                                          <.) V.                                ",
"                                                                                "
};
