/* XPM */
static char *_b6ab5a6dac04fd3d68308ae6be7e31fAAxJ1Qe4UwvuKuBZ[] = {
/* columns rows colors chars-per-pixel */
"64 64 103 2 ",
"   c #51B695",
".  c #52B79A",
"X  c #53B79C",
"o  c #53B79E",
"O  c #53B79F",
"+  c #53B7A1",
"@  c #54B8A1",
"#  c #54B8A3",
"$  c #54B8A4",
"%  c #55B8A7",
"&  c #55B8A8",
"*  c #56B9AB",
"=  c #56B9AD",
"-  c #56B9AF",
";  c #57B9B1",
":  c #57B9B2",
">  c #57BAB4",
",  c #58BAB6",
"<  c #58BAB9",
"1  c #59BABA",
"2  c #59BBBF",
"3  c #5ABBBF",
"4  c #5ABBC1",
"5  c #5ABBC2",
"6  c #5BBBC5",
"7  c #5BBCC6",
"8  c #5BBCC8",
"9  c #5CBCC9",
"0  c #5CBCCC",
"q  c #5CBCCD",
"w  c #5CBCCE",
"e  c #5DBDD0",
"r  c #5DBDD2",
"t  c #5EBDD7",
"y  c #5FBEDB",
"u  c #5FBEDD",
"i  c #60BEDE",
"p  c #60BEDF",
"a  c #59A2E4",
"s  c #59A3E4",
"d  c #5AA6E5",
"f  c #5BA7E5",
"g  c #5BA8E6",
"h  c #5CAAE6",
"j  c #5CAAE7",
"k  c #5CACE7",
"l  c #5CACE8",
"z  c #5DADE8",
"x  c #5DAFE8",
"c  c #5EB2EA",
"v  c #5FB4EB",
"b  c #5FB5EB",
"n  c #60BEE0",
"m  c #60BFE2",
"M  c #61BFE4",
"N  c #60B6EB",
"B  c #60B7EB",
"V  c #60B7EC",
"C  c #62BFE8",
"Z  c #61BAED",
"A  c #61BBED",
"S  c #63BFEF",
"D  c #64BFEF",
"F  c #65BFEF",
"G  c #69BDEF",
"H  c #6ABDEF",
"J  c #6DBBF0",
"K  c #6ABDF0",
"L  c #6CBCF0",
"P  c #77B7F0",
"I  c #7FB3F1",
"U  c #79B6F1",
"Y  c #71B9F0",
"T  c #73B8F0",
"R  c #71BAF0",
"E  c #75B8F0",
"W  c #62C0EB",
"Q  c #63C0EF",
"!  c #64C0EF",
"~  c #AB9EF4",
"^  c #AB9FF4",
"/  c #AE9DF4",
"(  c #AC9EF4",
")  c #BD96F5",
"_  c #B39BF5",
"`  c #B59AF5",
"'  c #87AFF2",
"]  c #8FABF2",
"[  c #8AAEF2",
"{  c #8FACF2",
"}  c #98A7F3",
"|  c #9AA7F3",
" . c #9FA4F3",
".. c #9EA5F3",
"X. c #90ABF2",
"o. c #95A9F3",
"O. c #82B2F1",
"+. c #A2A3F3",
"@. c #A0A4F3",
"#. c #A3A2F4",
"$. c #A5A1F4",
"%. c #A6A1F4",
"&. c #A9A0F4",
/* pixels */
"Q Q Q Q Q Q Q Q Q Q Q Q Q Q Q Q Q Q Q Q Q Q Q Q Q Q Q Q Q Q Q Q Q Q Q Q Q Q F O.| _ _ (  .|  .[ I [ ' H [ _ I Q Q Q Q Q Q Q Q Q ",
"Q Q Q Q Q Q Q Q Q Q Q Q Q Q Q Q Q Q Q Q Q Q Q Q Q Q Q Q Q Q Q Q Q Q Q Q Q Q R { ` X.{  .&.O.Y | ) +.| +.~ | Y Q Q Q Q Q Q Q Q Q ",
"Q Q Q Q Q Q Q Q Q Q Q Q Q Q Q Q Q Q Q Q Q Q Q Q Q Q Q Q Q Q Q Q Q Q Q Q F H | @.U J O.( ( ` I ] ~ [ I ] ] P F Q Q Q Q Q Q Q Q Q ",
"Q Q Q Q Q Q Q Q Q Q Q Q Q Q Q Q Q Q Q Q Q Q Q Q Q Q Q Q Q Q Q Q Q Q Q Q F R / X.! U  .| U ( +.O.| +.Y F Q Q Q Q Q Q Q Q Q Q Q Q ",
"Q Q Q Q Q Q Q Q Q Q Q Q Q Q Q Q Q Q Q Q Q Q Q Q Q Q Q Q Q Q Q Q Q Q Q Q F H +. . .$. .L ! Y +.O.U ` I S Q Q Q Q Q Q Q Q Q Q Q Q ",
"Q Q Q Q Q Q Q Q Q Q Q Q Q Q Q Q Q Q Q Q Q Q Q Q Q Q Q Q Q Q Q Q Q Q Q Q S Q E o.| O.K ! Q F o.@.o.) U S Q Q Q Q Q Q Q Q Q Q Q Q ",
"Q Q Q Q Q Q Q Q Q Q Q Q Q Q Q Q Q Q Q Q Q Q Q Q Q Q Q Q Q Q Q Q Q Q Q Q Q Q ! H J F Q Q Q Q U  .( ~ J F Q Q Q Q Q Q Q Q Q Q Q Q ",
"Q Q Q Q Q Q Q Q Q Q Q Q Q Q Q Q Q Q Q Q Q Q Q ! Q Q Q Q Q Q Q Q Q Q Q Q Q Q Q Q Q Q Q Q Q Q Q E O.P F F Q Q Q Q Q Q Q Q Q Q Q Q ",
"Q Q Q Q Q Q Q Q Q Q Q Q Q Q Q Q Q Q Q Q Q Q W p W Q Q Q Q Q Q Q Q Q Q Q Q Q Q Q Q Q Q Q Q Q Q Q F Q Q Q Q Q Q Q Q Q Q Q Q Q Q Q ",
"Q Q Q Q Q Q Q Q Q Q Q Q Q Q Q Q Q Q Q Q W W 5 : - w Q Q Q Q Q Q Q Q Q Q Q Q Q Q Q Q Q Q Q Q Q Q Q Q Q Q Q Q Q Q Q Q Q Q Q Q Q Q ",
"Q Q Q Q Q Q Q Q Q Q Q Q Q Q Q Q Q p M ! W , $ 5 2 - W Q Q Q Q Q Q Q Q Q Q Q Q Q Q Q Q Q Q Q Q Q Q Q Q Q Q Q Q Q Q Q Q Q Q Q Q Q ",
"Q Q Q Q Q Q Q Q Q Q Q Q Q Q Q Q w $ $ 9 t @ 9 ! p $ y Q Q Q Q Q Q Q Q Q Q Q Q Q Q Q Q Q Q Q Q Q Q Q Q Q Q Q Q Q Q Q Q Q Q Q Q Q ",
"Q Q Q Q Q Q Q Q Q Q Q Q Q Q Q M & 5 w $ , $ 5 ! w $ p ! Q Q Q Q Q Q Q Q Q Q Q Q Q Q Q Q Q Q Q Q Q Q Q Q Q Q Q Q Q Q Q Q Q Q Q Q ",
"Q Q Q Q Q Q Q Q Q Q Q Q Q Q Q t & 9 ! p : O : n 4 , W W Q ! Q Q Q Q Q Q Q Q Q Q Q Q Q Q Q Q Q Q Q Q Q Q Q Q Q Q Q Q Q Q Q Q Q Q ",
"Q Q Q Q Q Q Q Q Q Q Q Q Q Q Q M 5 $ 7 W 9 @ @ e 1 : 1 , : w W Q Q Q Q Q Q Q Q Q Q Q Q Q Q Q Q Q Q Q Q Q Q Q Q Q Q Q Q Q Q Q Q Q ",
"Q Q Q Q Q Q Q Q Q Q Q Q Q Q Q ! Q 7 @ - 2 - . 4 2 $ @ : : - w ! Q Q Q Q Q Q Q Q Q Q Q Q Q Q Q Q Q Q Q Q Q Q Q Q Q Q Q Q Q Q Q Q ",
"Q Q Q Q Q Q Q Q Q Q Q Q Q Q Q Q Q Q p 1 O - 3 O > e W W W , , ! Q Q Q Q Q Q Q Q Q Q Q Q Q Q Q Q Q Q Q Q Q Q Q Q Q Q Q Q Q Q Q Q ",
"Q Q Q Q Q Q Q Q Q Q Q Q Q Q Q Q Q Q Q n O , 5 $ & W t t 9 o 2 W Q Q Q Q Q Q Q Q Q Q Q Q Q Q Q Q Q Q Q Q Q Q Q Q Q Q Q Q Q Q Q Q ",
"Q Q Q Q Q Q Q Q Q Q Q Q Q Q Q Q Q ! Q 8   t p : 2 > $ & : & u Q Q Q Q Q Q Q Q Q Q Q Q Q Q Q Q Q Q Q Q Q Q Q Q Q Q Q Q Q Q Q Q Q ",
"Q Q Q Q Q Q Q Q Q Q Q Q Q Q Q Q Q M 5 O 7 t $ e u @ 9 Q W W Q Q Q Q Q Q Q Q Q Q Q Q Q Q Q Q Q Q Q Q Q Q Q Q Q Q Q Q Q Q Q Q Q Q ",
"Q Q Q Q Q Q Q Q Q Q Q Q Q Q Q Q Q 9 @ p M @ O - e - 9 Q Q Q Q Q Q Q Q Q Q Q Q Q Q Q Q Q Q Q Q Q Q Q Q Q Q Q Q Q Q Q Q Q Q Q Q Q ",
"Q Q Q Q Q Q Q Q Q Q Q Q Q Q Q Q M 1 @ y - $ w $ u > 5 Q Q Q Q Q Q Q Q Q Q Q Q Q Q Q Q Q Q Q Q Q Q Q Q Q Q Q Q Q Q Q Q Q Q Q Q Q ",
"Q Q Q Q Q Q Q Q Q Q Q Q Q Q Q Q ! 8 .   O y p $ n 5 > b Q Q Q Q Q Q Q Q Q Q Q Q Q Q Q Q Q Q Q Q Q Q Q Q Q Q Q Q Q Q Q Q Q Q Q Q ",
"Q Q Q Q Q Q Q Q Q Q Q Q Q Q Q Q Q C 9 w Q F y & 8 5 $ M Q Q Q Q Q Q Q Q Q Q Q Q Q Q Q Q Q Q Q Q Q Q Q Q Q Q Q Q Q Q Q Q Q Q Q Q ",
"Q Q Q Q Q Q Q Q Q Q Q Q Q Q Q Q Q Q Q Q Q Q M 1 # & 5 Q Q Q Q Q Q Q Q Q Q Q Q Q Q Q Q Q Q Q Q Q Q Q Q Q Q Q Q Q Q Q Q Q Q Q Q Q ",
"Q Q Q Q Q Q Q Q Q Q Q Q Q Q Q Q Q Q Q Q Q Q Q M w 8 M Q Q Q Q Q Q Q Q Q Q Q Q Q Q Q Q Q Q Q Q Q Q Q Q Q Q Q Q Q Q Q Q Q Q Q Q Q ",
"Q Q Q Q Q Q Q Q Q Q Q Q Q Q Q Q Q Q Q Q Q Q Q Q Q Q Q Q Q Q Q Q Q Q Q Q Q Q Q Q Q Q Q Q Q Q Q Q Q Q Q Q Q Q Q Q Q Q Q Q Q Q Q Q ",
"S Q Q Q Q Q Q Q Q Q Q Q Q Q Q Q Q Q Q Q Q Q Q Q Q Q Q Q Q Q Q Q Q Q Q Q Q Q Q Q Q Q Q Q Q Q Q Q Q Q Q Q Q Q Q Q Q Q Q Q Q Q Q Q ",
"b S S S Q Q Q Q Q Q Q Q Q Q Q Q Q Q Q Q Q Q Q Q Q Q Q Q Q Q Q Q Q Q Q Q Q Q Q Q Q Q Q Q Q Q Q Q Q Q Q Q Q Q Q Q Q Q S S S Z S M ",
"g c S S Q Q Q Q Q Q Q Q Q Q Q Q Q Q Q Q Q Q Q Q Q Q Q Q Q Q Q Q Q Q Q Q Q Q Q Q Q Q Q Q Q Q Q Q Q Q Q Q Q Q Q Q Q S S D c d d j ",
"s d Z S Q Q Q Q Q Q Q Q Q Q Q Q Q Q Q Q Q Q Q Q Q Q Q Q Q Q Q Q Q Q Q Q Q Q Q Q Q Q Q Q Q Q Q Q Q Q Q Q Q Q Q Q Q S Z l d s s s ",
"d d c S Q Q Q Q Q Q Q Q Q Q Q Q Q Q Q Q Q Q Q Q Q Q Q Q Q Q Q Q Q Q Q Q Q Q Q Q Q Q Q Q Q Q Q Q Q Q Q Q Q Q Q S S S l s j v j s ",
"b d d S S Q Q Q S S S D S S Q Q Q Q Q Q Q Q Q Q Q Q Q Q Q Q Q Q Q Q Q Q Q Q Q Q Q Q Q Q Q Q Q Q Q Q Q Q Q Q Q Q S b d g b S Z c ",
"Z c s c S Q Q F S S V Z Z C S Q Q Q Q Q Q Q Q Q Q Q Q Q Q Q Q Q Q Q Q Q Q Q Q Q Q Q Q Q Q Q Q Q Q Q Q Q Q Q Q Q S c d c Q S S S ",
"F Z g d Z Q S Z b l d d g h c b S Q Q Q Q Q Q Q Q Q Q Q Q Q Q Q Q Q Q Q Q Q Q Q Q Q Q Q Q Q Q Q Q Q Q Q Q Q Q Q S l g S Q Q Q Q ",
"S S h s b S S c s d h l g d d d k c b S Q Q Q Q Q Q Q Q Q Q Q Q Q Q Q Q Q Q Q Q Q Q Q Q Q Q Q Q Q Q Q Q Q Q Q Q S l d b S Q Q Q ",
"S S b s k S N g d c D D Z b k g d g g b S Q Q Q Q Q Q Q Q Q Q Q Q Q Q Q Q Q Q Q Q Q Q Q Q Q Q Q Q Q Q Q Q Q Q Q Q B d c S Q Q Q ",
"S S Z d k Q k d c Z Q D Q S ! Q b l d d b S Q Q Q Q Q Q Q Q Q Q Q Q Q Q Q Q Q Q Q Q Q Q Q Q Q Q Q Q Q Q Q Q Q Q S Z d g b Q Q Q ",
"Q S Z d k Z l d b Q Q Q Q Q Q Q D M x d c S Q Q Q Q Q Q Q Q Q Q Q Q Q Q Q Q Q Q Q Q Q Q Q Q Q Q Q Q Q Q Q Q Q Q S Z k d b Q Q Q ",
"Q S S d Z Z h c Q Q Q Q Q Q Q Q Q Q b d g S Q Q Q Q Q Q Q Q Q Q Q Q Q Q Q Q Q Q Q Q Q Q Q Q Q Q Q Q Q Q Q Q Q Q F W b d k S Q Q ",
"Q Q S d d d k Z Q Q Q Q Q Q Q Q Q Q V d l Z F S Q Q Q Q Q Q Q Q Q Q Q Q Q Q Q Q Q Q Q Q Q Q Q Q Q Q Q Q Q Q Q ! S Q B h d b Q Q ",
"Q Q Q k d s k Q Q Q Q Q Q Q Q Q Q Q Z d c S S S Q Q Q Q Q Q Q Q Q Q Q Q Q Q Q Q Q Q Q Q Q Q Q Q Q Q Q ! S Z S ! Q Q S b d g S Q ",
"Q Q Q b l l S S Q Q S S Q Q Q S Q Z g h Z S Q Q Q Q Q Q Q Q Q Q Q Q Q Q Q Q Q Q Q Q Q Q Q Q Q Q Q Q Q c k g k B S Q Q B g d g Q ",
"Q b c S F M Q Q Q S Z Z N b b b v d d c S Q Q Q Q Q Q Q Q Q Q Q Q Q Q Q Q Q Q Q Q Q Q Q Q Q Q Q Q S b d d s s d k b S S c d d b ",
"N g s h l ! F S Z k h g h g g g g g c S S Q Q Q Q Q Q Q Q Q Q Q Q Q Q Q Q Q Q Q Q Q Q Q Q Q Q Q Q Z k d d d h s s d h h h s s b ",
"s d h d s l Z S h s k c k c x l b Z S Q S S Q Q Q Q Q Q Q Q Q Q Q Q Q Q Q Q Q Q Q Q Q Q Q Q Q Q Q S h s d k W N c g d s s s h N ",
"s h b B d d Z S h d c N ! Q S S Q Q Q Q Q Q Q Q Q Q Q Q Q Q Q Q Q Q Q Q Q Q Q Q Q Q Q Q Q Q Q Q S Q c d s b S S S Z b c k c S c ",
"h h b k s g b S N s s h c Z Q Q Q Q Q Q Q Q Q Q Q Q Q Q Q Q Q Q Q Q Q Q Q Q Q Q Q Q Q Q Q Q Q Q S ! Z h d k b S S Q Q Q Q S S g ",
"N d s s d l ! Q Q c d s s h V S Q Q Q Q Q Q Q Q Q Q Q Q Q Q Q Q Q Q Q Q Q Q Q Q Q Q Q Q Q Q Q Q Q Q S Z d s d c b Z F F S Q S b ",
"Z Z l k N Z Z Z S Q S k d d d k Z ! Q Q Q Q Q Q Q Q Q Q Q Q Q Q Q Q Q Q Q Q Q Q Q Q Q Q Q Q Q Q Q Q S Q S h s d d h h N g b Z S ",
"S S ! Z N h d k b ! F Q F k d d l ! Q Q Q Q Q Q Q Q Q Q Q Q Q Q Q Q Q Q Q Q Q Q Q Q Q Q Q Q Q Q Q Q Q Q Q Z l g d s d s a a g S ",
"S S F Z d s d d k Z Q Q S S Z d d l Z Q Q Q Q Q Q Q Q Q Q Q Q Q Q Q Q Q Q Q Q Q Q Q Q Q Q Q Q Q Q Q Q Q Q Q ! b c k l B c d a c ",
"S Q S S d d c h d g W Q S Q S Z g d g Z Q Q Q Q Q Q Q Q Q Q Q Q Q Q Q Q Q Q Q Q Q Q Q Q Q Q Q Q Q Q Q Q Q Q Q Q S S S S M d d Z ",
"Q Q S C d d b S k d d b S S Q Q ! l d k S Q Q Q Q Q Q Q Q Q Q Q Q Q Q Q Q Q Q Q Q Q Q Q Q Q Q Q Q Q Q Q Q Q Q Q Q S S S l d l S ",
"Q Q Q S d d b S S k g g b Q Q Q Q N d g c S Q Q Q Q Q Q Q Q Q Q Q Q Q Q Q Q Q Q Q Q Q Q Q Q S F Q Q Q Q Q Q Q Q Q Q S Z l d V S ",
"Q Q Q S d d N Q S F l d g c S Q Q N g d c S Q Q Q Q Q Q Q Q Q Q Q Q Q Q Q Q Q Q Q Q Q Q Q Q S F Q Q Q Q Q Q Q Q Q Q S c d h S Q ",
"Q S S S d d b S S S b k g d k c k h d h Z F Q Q Q Q Q Q Q Q Q Q Q Q Q Q Q Q Q Q Q Q Q Q Q K U U H F Q Q Q Q Q Q Q Q S l d N S S ",
"Q S S S d d b S Q Q S S b g d s d d h Z S S Q Q Q Q Q Q Q Q Q Q Q Q Q Q Q Q Q Q Q Q Q Q K | +.$.o.H Q Q Q Q Q Q Q S c h s Z S S ",
"Q Q F Z d g Z Q Q Q Q Q S S b k c c Z S S Q Q Q Q Q Q Q Q Q Q Q Q Q Q Q F F Q Q H H Q F ' ~ O.[ ` O.F Q Q Q Q Q Q S c g s Z Q Q ",
"Q M Z c d c S Q Q Q Q Q S ! ! ! Q Q S Q S Q Q Q Q Q Q Q Q Q Q Q Q Q Q Q Q F H {  .] J F | +.J P +.I F Q Q Q Q Q Q Q b g s b Q Q ",
"b b l d g C S Q Q Q Q Q S Q Q Q Q Q Q Q Q Q Q Q Q Q Q Q Q Q Q Q Q Q Q Q Q H ] +.] $.| ] ~  .Q X. .! F S S Q Q Q Q Q S k s h Z ! ",
"g d d d c S S S Q Q Q Q Q Q Q Q Q Q Q Q Q Q Q Q Q Q Q Q Q Q Q Q Q Q Q Q Q Y +.] S P X.#.&.X.F o.@.Y H F ! Q Q Q Q Q Q Z d s g Z ",
"d d g c Q Q Q Q Q Q Q Q Q Q Q Q Q Q Q Q Q Q Q Q Q Q Q Q Q Q Q Q Q Q Q Q S J | +.H H P O.o.{ [ X.~ | | } [ P Q Q Q Q Q Q B d s d ",
"S Q Q ! Q Q Q Q Q Q Q Q Q Q Q Q Q Q Q Q Q Q Q Q Q Q Q Q Q Q Q Q Q Q Q Q S Q O.~ $. .| +.+.( ( { ' { {  .&. .H Q Q Q S S ! N h d "
};
