/* XPM */
static char *result[] = {
/* columns rows colors chars-per-pixel */
"64 64 241 2 ",
"   c #135D6C",
".  c #13616F",
"X  c #0F6F77",
"o  c #136574",
"O  c #136A76",
"+  c #136D7A",
"@  c #12737B",
"#  c #1A7779",
"$  c #1D7B7C",
"%  c #2D767E",
"&  c #1C827C",
"*  c #23887D",
"=  c #25937D",
"-  c #27977C",
";  c #147B80",
":  c #1A7B82",
">  c #3D6F84",
",  c #356B88",
"<  c #377386",
"1  c #36718F",
"2  c #426E84",
"3  c #447187",
"4  c #4C7593",
"5  c #4C7B98",
"6  c #517691",
"7  c #8B7DAE",
"8  c #178384",
"9  c #1C8484",
"0  c #1D8985",
"q  c #1B8B8A",
"w  c #208382",
"e  c #228C85",
"r  c #288D87",
"t  c #228D8B",
"y  c #269383",
"u  c #269A84",
"i  c #2A9D85",
"p  c #26928C",
"a  c #29968C",
"s  c #269B8A",
"d  c #2B9C8B",
"f  c #349A8E",
"g  c #269691",
"h  c #299693",
"j  c #2B9C93",
"k  c #399293",
"l  c #2DA085",
"z  c #2DA18C",
"x  c #35A588",
"c  c #32A48C",
"v  c #2EA192",
"b  c #2DA298",
"n  c #33A493",
"m  c #3AA896",
"M  c #34A499",
"N  c #48889B",
"B  c #48A28A",
"V  c #46A698",
"C  c #44AA9A",
"Z  c #4CAB9D",
"A  c #57A89A",
"S  c #53AC9D",
"D  c #64AB9E",
"F  c #4B8AA1",
"G  c #7E93BB",
"H  c #47A9A1",
"J  c #4EABA1",
"K  c #53ABA2",
"L  c #5CACA3",
"P  c #4CB0A4",
"I  c #5BB1A4",
"U  c #5DB2A8",
"Y  c #63ACA4",
"T  c #6CABA3",
"R  c #68B2AC",
"E  c #73B1A6",
"W  c #73B3AD",
"Q  c #71B2AE",
"!  c #7BB4AD",
"~  c #73B5B2",
"^  c #7BB5B3",
"/  c #79B8B6",
"(  c #7DB9B5",
")  c #7F9CC4",
"_  c #5EADDE",
"`  c #7BA9CB",
"'  c #77ADD2",
"]  c #65B5DD",
"[  c #69B7DE",
"{  c #6ABAD9",
"}  c #6ABBDE",
"|  c #76B4D0",
" . c #76B7D5",
".. c #74B5DA",
"X. c #74BBDB",
"o. c #7DBDDC",
"O. c #4FA8EF",
"+. c #57ABE9",
"@. c #5CB2E7",
"#. c #5DB3EB",
"$. c #57AEF3",
"%. c #61AFE1",
"&. c #62B5E5",
"*. c #66BAE4",
"=. c #6BBCE1",
"-. c #62B5E9",
";. c #67BBE8",
":. c #75BDE3",
">. c #7BBEE2",
",. c #7DC6CC",
"<. c #66C1DF",
"1. c #6DC2DF",
"2. c #7BC5D2",
"3. c #75C5D8",
"4. c #7DCCDD",
"5. c #7DD4DD",
"6. c #58CEF0",
"7. c #67C7E6",
"8. c #6DC4E1",
"9. c #6DCBE5",
"0. c #65CCEA",
"q. c #6BCCE9",
"w. c #70C6E2",
"e. c #7BC2E5",
"r. c #71CCE3",
"t. c #77CCE3",
"y. c #6CD2E6",
"u. c #66D3EB",
"i. c #6CD4EB",
"p. c #66DDEF",
"a. c #6DDAEB",
"s. c #74D3E5",
"d. c #7BD4E2",
"f. c #76DBE6",
"g. c #7ADAE4",
"h. c #72D5E9",
"j. c #73DBE9",
"k. c #68D8F0",
"l. c #8E81AD",
"z. c #8888B5",
"x. c #8991BD",
"c. c #87BAAF",
"v. c #86B9B5",
"b. c #85BAB4",
"n. c #BBEB9B",
"m. c #BCF29B",
"M. c #8CCABA",
"N. c #95C3B5",
"B. c #9BC6B6",
"V. c #98C8BA",
"C. c #8ED0BD",
"Z. c #9BDAB4",
"A. c #95D4BC",
"S. c #9AD9BA",
"D. c #A7CCAD",
"F. c #A6DCAD",
"G. c #A7C7BB",
"H. c #B8C9BC",
"J. c #A2DCB5",
"K. c #BAD4BE",
"L. c #9FE1B5",
"P. c #A8E2AA",
"I. c #ACE3AB",
"U. c #B5EAA3",
"Y. c #B1E6A8",
"T. c #B9F0A5",
"R. c #A8E3B3",
"E. c #C6F396",
"W. c #C1D4BE",
"Q. c #8297C2",
"!. c #829BC2",
"~. c #81ABCB",
"^. c #85B6C9",
"/. c #80BADA",
"(. c #86CBC8",
"). c #9CCECC",
"_. c #8DD1C2",
"`. c #88D1CB",
"'. c #99D5C6",
"]. c #85CCD7",
"[. c #8CCDD5",
"{. c #83CDDB",
"}. c #93CDD3",
"|. c #9BCED1",
" X c #8CD4D6",
".X c #85D3DD",
"XX c #8BD3DA",
"oX c #86D9DD",
"OX c #8BDADA",
"+X c #94D3D3",
"@X c #9CD5D1",
"#X c #94D9D5",
"$X c #9CD8D2",
"%X c #92D5D8",
"&X c #A5CBC6",
"*X c #A3CECA",
"=X c #B4CFC5",
"-X c #BDCEC1",
";X c #A9D5C6",
":X c #ACD4C6",
">X c #A3D4CC",
",X c #ABD5CA",
"<X c #A5D8CD",
"1X c #B4D4C4",
"2X c #BAD5C2",
"3X c #B8D7C8",
"4X c #A0D8D0",
"5X c #BAD5D3",
"6X c #82D8E2",
"7X c #C1CFC3",
"8X c #C4D2C6",
"9X c #C5D4C9",
"0X c #C8D6CB",
"qX c #C3DCCE",
"wX c #CBD9CD",
"eX c #CDDCD2",
"rX c #C8DBD8",
"tX c #D2DDD4",
"yX c #D3DEDA",
"uX c #CBE1D9",
"iX c #D4E3DC",
"pX c #D8E3DA",
"aX c #D4E4E2",
"sX c #D7E7E5",
"dX c #DCE5E2",
"fX c #DCE9E5",
"gX c #DDEAEA",
"hX c #DFF1ED",
"jX c #E1E6E4",
"kX c #E2E9E6",
"lX c #E3ECEB",
"zX c #E9EEEE",
"xX c #E8F1EE",
"cX c #E5EEF0",
"vX c #E9EFF1",
"bX c #E7F2F2",
"nX c #ECF2F4",
"mX c #F1F4F6",
"MX c #F3F6F9",
"NX c #F5F8FC",
"BX c #FCFBFE",
/* pixels */
"f.f.f.f.f.f.f.f.f.f.f.f.f.f.f.f.f.f.f.f.f.f.f.f.f.f.f.f.f.f.f.f.f.f.f.f.6Xf.f.p.oX$X$X<X#Xg.a.f.f.f.f.f.f.f.f.f.f.f.f.f.f.f.f.f.",
"f.f.f.f.f.f.f.f.f.f.g.f.f.f.f.f.f.f.f.f.f.f.f.f.f.g.f.f.f.f.f.f.f.f.f.f.j.f.p.#XK.3X<X<XK.4Xj.f.f.f.f.f.f.f.f.f.f.f.f.f.f.f.f.f.",
"f.f.f.f.f.f.f.f.f.f.f.f.g.f.f.f.f.f.f.f.f.f.f.f.f.f.f.f.f.f.f.j.f.f.f.f.f.p.oXqX#Xa.j.j.OX3XoXa.f.p.f.j.j.f.f.f.f.f.f.f.f.f.f.f.",
"f.f.f.f.f.f.f.j.f.f.f.f.f.f.f.f.f.f.f.j.f.f.f.f.f.f.f.f.f.f.f.6Xf.f.f.f.f.p.#XqXf.p.f.p.j.3X#Xp.f.OXOXf.j.a.f.f.f.f.f.f.f.f.f.f.",
"g.f.f.f.f.f.j.g.f.f.f.f.f.f.f.f.f.f.g.g.f.f.f.f.f.f.f.f.f.f.f.j.f.f.f.f.f.j.#XT.g.a.g.j.OX3X5.a.<XW.3X3X<XoXj.j.f.f.f.f.f.g.f.f.",
"f.f.f.f.f.f.g.j.f.g.f.f.f.f.g.f.f.f.j.g.f.g.g.f.f.f.f.6Xf.f.j.j.f.f.p.j.f.p.j.4X:Xf.j.j.$X,Xf.$XK.$XOX#XR.3XOXf.f.f.f.f.f.f.f.f.",
"f.f.f.f.f.f.f.g.f.f.f.f.f.g.f.f.f.f.f.f.f.f.f.f.f.f.f.f.f.f.f.f.j.f.#X'.$XOXp.j.<X<Xa.a.#X,X<X2X#Xj.p.p.6X3X,Xf.j.f.f.f.f.f.f.f.",
"f.g.f.f.f.f.f.g.f.f.f.f.f.f.f.f.f.f.f.g.f.f.f.f.f.f.f.f.f.f.f.j.oX3X3X3X<XqX<Xj.a.4XOXa.<X3X2X$Xp.f.f.f.p.#X2X6Xj.f.f.f.f.f.g.f.",
"f.f.f.s.f.f.j.j.g.f.f.f.j.f.f.f.f.f.j.g.f.j.g.j.f.f.f.f.f.f.j.g.<X3XOXf.j.5.;X1Xf.j.<X>X:X3X<Xj.j.f.f.j.a.#X3Xg.j.f.f.f.f.f.f.f.",
"s.j.f.f.s.f.h.g.j.f.f.f.j.j.f.f.f.j.j.s.f.j.h.j.s.s.s.j.f.j.i.#XqXOXa.a.j.a.f.,X1X%X,X2X1X1XoXa.j.j.h.k.6X2X$Xh.j.f.j.j.f.f.f.f.",
"f.s.h.f.f.f.g.h.f.f.f.f.j.j.f.f.f.s.h.g.s.f.s.s.f.f.s.f.s.j.f.,X@Xa.f.f.f.h.h.d.:XW.2X$X,X>Xh.k.y.s.d.+X2X,Xj.h.j.f.f.j.s.j.f.j.",
"s.f.s.g.j.s.s.j.f.f.j.j.s.f.f.f.h.g.h.j.f.s.j.g.f.s.f.s.f.i.6X:X.Xa.s.j.s.f.j.k.j.%X%Xi.h.h.h..X$X;X1X1X$Xh.h.s.f.f.f.f.s.f.s.s.",
"f.s.f.h.h.h.h.g.h.g.s.h.f.s.f.s.h.h.h.d.d.h.h.s.j.s.f.s.h.i.XX3X5.a.s.s.f.i.i.d.s.u.h.$X+Xi. XK.,X%X X5.i.h.s.s.g.s.s.h.f.f.s.f.",
"s.h.s.g.d.s.s.s.s.s.s.t.s.s.s.s.d.t.s.s.h.h.d.s.s.s.s.s.s.y.d.,X.Xu.s.h.y.5.>X1X1XoXs.3XK.XX@XK.+Xu.u.k.h.g.s.s.h.s.s.s.j.s.s.s.",
"s.s.s.s.s.s.s.t.d.d.s.s.s.s.s.s.s.h.t.h.s.d.s.s.s.s.s.s.s.s.y.+X:Xd.y.s.+X1X,X).K.>X0.s. Xs.d.,X2X:X@X{.s.q.s.s.s.s.s.s.s.s.s.s.",
"t.s.s.s.s.s.r.h.h.h.s.s.s.s.s.s.s.s.s.s.s.s.t.s.s.s.s.s.5.s.y.5.,X1X,X:X:XXXr.@X2XXXy..X Xs.q.s.}.,X2XK.*X6Xy.s.t.s.s.s.s.t.s.s.",
"s.s.y.s.s.s.5.y.s.s.s.s.s.y.f.s.5.y.y.s.y.s.9.5.5.y.s.s.5.y.y.y.s.%X>X+Xs.5.>X1XXXy.XX2XW.).h.y.y.s.5.}.1X2X{.y.s.s.s.s.s.s.s.5.",
"s.t.5.y.1.s.s.y.r.s.1.s.y.5.1.y.s.1.5.y.5.y.y.y.s.s.y.1.5.y.y.5.y.9.u.0.}.2X>Xt.0.r.:X>X{.,X%Xq.h.9.y.0.{.1X*Xr.9.r.r.s.1.s.y.y.",
"r.r.s.s.5.s.1.5.r.s.r.r.1.5.1.y.s.1.y.3.s.1.1.s.s.1.s.r.9.9.y.y.1.s.q.+XK.}.y.y.q.{.1X{.6.}.=Xt.9.s.r.y.9.>X1X{.q.s.r.s.9.5.1.s.",
"9.s.1.s.9.1.y.y.r.s.r.r.s.y.y.5.y.5.s.y.5.y.9.5.r.s.9.t.y.5.1.s.s.y.].2X].0.q.t.y.4.,X{.0.{.=X{.q.r.y.9.s.&X=X{.9.s.r.r.1.y.9.5.",
"r.r.r.t.y.s.r.r.s.r.r.s.r.s.r.s.r.r.t.r.9.9.r.s.9.r.s.r.r.r.s.r.r.y.|.|.0.r.h.r.9.d.:X{.q.q.,X=X9.y.0.0.].-X*Xr.h.t.h.r.s.r.s.9.",
"r.9.h.r.r.r.r.r.r.r.9.t.r.r.r.r.r.r.h.t.9.s.r.r.s.r.r.r.t.r.r.r.w.9.|.}.7.h.w.r.q.t.=X{.q.q.{.K.*X4.4.[.=X2X{.q.w.r.w.r.s.9.r.r.",
"r.r.r.r.r.r.r.r.r.r.r.r.r.r.t.r.r.r.r.9.r.r.w.r.r.r.r.r.r.r.s.r.r.9. X*X7.q.9.9.0.}.*Xr.r.9.7.[.2XH.1XK.=X[.7.9.r.r.r.r.r.r.r.r.",
"r.r.r.r.r.r.r.r.9.r.r.r.r.r.r.r.9.r.r.r.r.r.t.r.r.r.r.r.r.r.1.r.t.9.1.).|.r.9.w.}.*X4.9.w.r.r.q.].}.}.[.3.7.h.w.r.w.r.r.r.t.w.r.",
"r.r.r.r.r.r.r.r.r.r.r.w.r.w.r.r.r.r.w.r.r.r.w.r.r.r.r.r.r.w.r.r.r.r.7.t.*X*X).).).].7.r.r.w.r.w.9.9.7.9.9.r.r.r.w.w.w.w.r.w.r.r.",
"r.w.w.w.r.1.w.w.r.w.9.r.r.w.w.w.w.r.w.r.w.w.r.w.w.w.w.w.w.w.1.r.w.9.r.9.w.].[.{.9.9.w.w.r.w.r.w.9.w.9.w.w.w.w.w.w.r.r.w.r.9.w.w.",
"w.r.w.w.w.9.9.w.w.w.1.w.w.r.w.w.w.w.w.r.9.w.w.w.r.w.w.w.w.w.w.w.w.w.w.w.8.7.7.8.9.w.w.1.w.w.w.w.1.w.w.w.9.w.w.w.w.w.w.w.w.1.w.r.",
"w.8.w.w.w.8.w.w.w.9.w.w.w.w.w.w.w.w.w.w.8.w.w.w.9.w.w.w.w.w.w.w.w.w.w.w.9.w.8.8.w.w.w.w.w.w.w.w.w.w.w.w.w.w.w.w.w.w.w.w.9.9.w.w.",
"w.w.8.8.8.8.w.w.1.w.w.w.1.w.1.w.w.8.w.1.w.w.w.8.1.9.9.1.8.8.w.w.w.w.1.w.w.w.w.1.w.w.1.w.8.w.w.w.8.w.w.8.w.w.1.w.w.w.w.w.1.w.1.w.",
"8.8.8.8.w.8.8.8.1.1.1.w.1.1.1.9.w.8.1.w.1.1.w.8.r.' ..y.9.9.8.w.1.8.1.w.8.8.1.8.1.w.1.w.1.8.8.8.8.1.w.1.1.w.1.w.1.1.1.8.1.w.w.1.",
"*.3.1.7.w.8.8.8.w.1.w.1.w.w.1.w.1.w.1.w.8.8.9.k.X.7 l.X.X.X.w.w.1.8.1.8.1.w.w.1.1.1.1.1.8.w.w.8.1.1.1.1.w.1.1.1.1.8.8.1.8.8.1.8.",
"'.R.R.,.;.8.8.8.1.1.1.1.9.1.8.1.1.1.1.1.1.9. .!.~./.~.z.!.` w.8.w.1.1.w.1.1.w.1.w.1.w.w.1.1.3.1.w.1.1.9.1.1.w.w.1.1.8.1.8.8.7.3.",
"`.8.,.L.3.*.1.8.1.} 1.=.8.8.8.8.1.8.1.8.9. .!...!.!.7 l.i.` ) q.1.1.8.8.8.1.8.8.8.=.1.8.1.8.8.8.<.1.1.1.8.8.8.1.8.1.1.1.8.7.<.S.",
"*.7.#.`.L.*.8.8.8.8.1.8.8.8.8.1.8.} 8.8.9...G X.Q.x.Q.z.~.z.' 7.8.8.8.8.8.8.8.8.8.8.8.8.8.8.8.8.8.*.8.8.8.8.*.1.8.1.1.7.*.;.`.Z.",
"=.8.;.3.L.1.;.8.=.8.=.8.*.8.8.=.*.8.8.=.8.7.:.z.7 Q.!.z.z...7.1.8.8.8.1.<.8.*.1.8.8.=.8.=.8.=.8.1.*.8.8.8.8.<.} <.8.-.8.3.#.,.R.",
"2.-.#.A.L.*.;.#.&.&.8.=.=.*.8.=.8.*.8.*.8.=.} x.>.x.7 !.~...7.8.8.=.*.=.=.=.8.=.=.8.=.8.8.=.8.=.8.8.=.=.=.=.8.8.8.#.2.P.U.Z.3.R.",
"S.@.3.I.o.+.2.R.I.`.#.=.=.} 8.=.} 8.=.8.8.7.=.x.z.` ' z.x.' 7.=.=.8.8.=.=.=.=.=.8.=.8.=.=.8.8.=.=.=.=.=.8.=.=.=.-.2.Y.(.3.I.S.(.",
"Y.3.Z.Z.O._.U.P.F.m.A.-.=.=.=.=.=.} =.=.} } 7.[ x.X.0.' ` 7.*.} =.} =.=.} 8.=.8.} 1.=.=.=.} } } } =.<.} } =.=.8.] L.A.@.#.] U.C.",
"E.,._.U.J.Y.(.#.$.C.E.2.&.=.} } } } } } } 1.} =.0.8.*.7.7.} } } *.} } 8.} 1.} } } } } } } } } } 1.} } 1.} } } *.3.F.2.-.} #.(.m.",
"Z.{  .J._.&.#.=.-.} n._.@.=.X.=.1.=.} } } } =.} } } } } =.} } } =.} } } } } } } } =.} 8.} =.=.=.} =.} =.} 8.} *.1.Y.,.#.} =.@._.",
"+.S.T.] @.X.{ #.+.M.E.(.#.*.} =.} } =.} =.=.=.[ [ =.=.=.} } [ =.} =.} } =.} } } =.=.=.} } } =.} =.} } } } =.=.=.@.P.n.] +.-.[ ..",
"M.2._.C.F.n.Y.Z.Z.E.F.] *.[ } } } } [ =.=.[ } } =.=.*.[ [ } =.} } } =.} } } [ =.[ } } [ } } [ } [ } } } [ =.[ } *.{ Y.U.S.A.Z.F.",
"m.M._ S.E.| C.F.I.A.[ -.[ } [ =.=.[ [ } [ =.[ =.} } [ *.} } } } =.} } } } } } [ =.} =.[ } } [ } } } } } } =.[ [ } &.] _.A.M.,.F.",
"n.E.2._ P.A.+.%.&.%.&.:.[ [ [ [ *.[ [ [ [ [ } [ } [ } *.} [ [ } [ } [ } } [ [ [ [ } [ } } } [ [ [ [ [ } [ [ [ [ [ } *.+._ (._.A.",
"m.E.4.$.[ Y.S.-.;.;.=.;.;.;.;.=.;.;.=.=.=.*.=.=.=.*.*.=.=.;.*.*.*.[ *.=.*.[ =.*.*.=.=.*.*.*.=.*.=.=.*.*.&.*.*.*.*.=.-.4.R._.=.[ ",
"D.D.^.' ' v.G.^.| ~.^.~.~.^.` | ' ' :...>.>.:.:.:.e.>.e.>.e.>.e.e.e.e.e.e.e.e.e./.>.e./.>.o.e.o.o.o./.>.>.o././.o.o.| G.G.] ..^.",
"1 1 , , , 1 , < , < , % < < < < < 1 k 5 N F F F 5 5 5 5 5 5 6 5 4 4 4 5 4 4 4 4 6 4 4 4 4 4 3 2 3 2 2 2 2 > > 2 > > > , 1 > 2 > ",
"9 9 ; 8 8 8 q q 8 9 & q q q 8 q q q 8 : : : # : $ o o   . o . o o o O o o o O O + + O O + @ + @ X + ; @ ; ; ; ; # @ 8 8 @ ; ; ; ",
"t w t t q p t t w * t t p t q t w 9 e w # # $ : $ $ w w : w w 9 e 0 0 9 9 w q q r & 9 9 e t t t t t p t t t t p 8 & 8 0 y e e 0 ",
"g e e g a y g p p a h j h j j h j a a d * # $ $ # # : $ # # $ $ $ $ $ $ $ & w & w w w $ $ w : w e w 9 & * & & & k V k e e 0 p a ",
"j y p y y y u j j b M n b b M f d d c d f e w e r p r r e e e * e e e y p p t p h h g a a p p h a p a g e * = y m P B y s j j j ",
"v v n j s u z v d i i u d z d d i c x m f y e * p h = r y a y y = = y y a j v j j j a s = d d d j z v d d j v d y = s z d s d v ",
"M C m m m m m H m n c x l z c z c m C C m f a p a y r = = - i u y = - - u l z l u l - - = - - u i l z - - l z i l c c n n c m M ",
"C C C C P P J P I P Z Z Z Z P I Z V m n M M M b n n v d z c n n n f c d c c z c n n n z f a l c c z l l l x x c z c c c n V V C ",
"P S I I I U U I S S S I R R W W R R L K V H H V V V H H J H H V Z C Z V C C Z S Z J P P J K K J J P K J S K I S P P Z S S Z Z S ",
"( ( ( ( / / / ~ ! ~ W W / M.( W W ^ ^ Y K J K K K K K K Z S Z Z S S S S C B Z A L Y I L L L L L Y Q ~ R R ~ Q ~ ~ ~ ~ Q ! ( / / ",
"( ( b.( ! ( / b.b.b.b.b.c.b.b.b.c.c.T L K A K A A A A Y L A A A A A B B A A B A Y Y D D c.V.T A Y W ~ ! W ^ ^ ^ ( ! / ! / ( ( ( ",
"B.B.B.B.B.B.B.G.1X3X1XK.2X1X2X1X5X5XB.L F Y Q ^ v.v.! Q ! v.^ T D D v.&XaX).E v.c.v.&Xv.5XdX5X&XN.N.B.B.B.B.&XS.V.N.N.V.N.N.c.B.",
"2XqXqX3XqXuXeXrXaXfXfXlXlXfXaXfXlXMXgX5X5XrXsXgXmXvXgXaXsXvXgXrX3XrXvXBXBXvXlXvXgXvXmXvXvXvXNXBXiXqXiXfXrXuXiXsXpXuXqX3X2X3XqXwX",
"uXfXfXiXuXhXlXzXcXcXbXbXBXMXnXbXvXzXmXBXBXBXMXNXNXMXNXNXBXMXBXBXNXMXvXlXMXBXMXvXBXNXmXvXvXvXzXnXbXcXlXnXlXaXiXfXxXiXiXfXiXlXbXlX",
"nXnXnXnXkXlXMXBXmXvXaXyXnXNXcXaXjXcXzXmXmXvXmXmXMXMXcXgXmXMXmXjXcXvXyXeXnXMXgXgXzXlXvXfXlXnXnXmXnXnXxXlXnXxXiXaXzXmXmXNXnXMXMXnX",
"mXmXmXMXzXjXkXtXjXyX5XeXtXdXeX-X9XtXgXMXMXmXmXmXmXMXMXMXMXMXMXvXnXvXyXdXvXmXgXyXfXpXdXpXyXpXdXzXMXkXfXlXzXnXnXdXpXdXkXkXpXpXpXkX",
"tXjXjXjXdXyXtX9XeXH.H.7X-X7X-XH.G.H.0XlXmXzXzXBXMXMXNXMXBXMXmXvXcXdXjXzXlXjXdXdXpXzXkXpXeXiXpXlXzXpX0XwXeXtXpX0X0X7XtXwXW.8X8X8X",
"wXwXtXuXeX9X0X0XwX8X7X8XeXeX9X7X8X9X0X9X9X9XtXdXdXkXlXjXjXkXyXwXwX7X7XtXyXeXeXtXtXpXpXeXeXwXeXpXtXeXeXwXqX0X8X8X8X0X8X0X8X8XqX0X"
};
