/* XPM */
static char *e9cebf96b6694297d1613f2036a909c5Kb7dW6v0gz7aknw8[] = {
/* columns rows colors chars-per-pixel */
"64 64 228 2 ",
"   c #2F4638",
".  c #2A5C4D",
"X  c #4B7358",
"o  c #67775C",
"O  c #487668",
"+  c #547A6C",
"@  c #6A7C67",
"#  c #6D7B7D",
"$  c #A35216",
"%  c #935F38",
"&  c #A7602E",
"*  c #907A50",
"=  c #897F70",
"-  c #6D8066",
";  c #6B826E",
":  c #73866B",
">  c #78896A",
",  c #6D8572",
"<  c #6C8A7E",
"1  c #738A74",
"2  c #7A8D74",
"3  c #778C78",
"4  c #758D7B",
"5  c #7B9179",
"6  c #7B937D",
"7  c #838B74",
"8  c #839574",
"9  c #889772",
"0  c #82957B",
"q  c #849A7D",
"w  c #8C9D7D",
"e  c #87B37A",
"r  c #9FC55C",
"t  c #95C46C",
"y  c #8BC178",
"u  c #96C571",
"i  c #CCD05C",
"p  c #CDD16B",
"a  c #D2D369",
"s  c #C5CC7B",
"d  c #CED375",
"f  c #CED37B",
"g  c #D1D57A",
"h  c #3F759C",
"j  c #1C6CB9",
"k  c #3878A7",
"l  c #226DB8",
"z  c #2977BC",
"x  c #367BB6",
"c  c #4A7E9E",
"v  c #0C65CA",
"b  c #0E66CB",
"n  c #1467C7",
"m  c #1A6DC5",
"M  c #156BCC",
"N  c #196DCA",
"B  c #1D71C3",
"V  c #1C74CD",
"C  c #1F79CF",
"Z  c #0A66D2",
"A  c #0E69D2",
"S  c #0B68D7",
"D  c #116AD2",
"F  c #1E77D0",
"G  c #1B79D4",
"H  c #2372C2",
"J  c #2679C4",
"K  c #247DCB",
"L  c #217DD2",
"P  c #2E87BD",
"I  c #4A819B",
"U  c #5A8696",
"Y  c #678A8A",
"T  c #779485",
"R  c #7B9684",
"E  c #6C8F93",
"W  c #7DBC8A",
"Q  c #6DB89C",
"!  c #77BA95",
"~  c #76BC94",
"^  c #73BC9C",
"/  c #4B85A8",
"(  c #558AA5",
")  c #57ACB7",
"_  c #5BB7B7",
"`  c #54B5BE",
"'  c #56B9BE",
"]  c #5BBDBD",
"[  c #67B6A7",
"{  c #6BBBA5",
"}  c #68B7A8",
"|  c #65BAAC",
" . c #5EC1BD",
".. c #69CAB7",
"X. c #62C4BB",
"o. c #67C9BB",
"O. c #6ACBB9",
"+. c #6ACDBA",
"@. c #6DCEB9",
"#. c #6CCCBA",
"$. c #6DCDBB",
"%. c #6ECEBB",
"&. c #6ACBBC",
"*. c #6DCEBC",
"=. c #6ED1BB",
"-. c #6ED0BC",
";. c #2A85CB",
":. c #2983CD",
">. c #308DCF",
",. c #3796CB",
"<. c #2483D5",
"1. c #2986D3",
"2. c #2C8BD5",
"3. c #2686D8",
"4. c #2987D8",
"5. c #2788D8",
"6. c #2C8BD9",
"7. c #2F90D7",
"8. c #2F90DA",
"9. c #3393D5",
"0. c #3A9ED4",
"q. c #3294DA",
"w. c #3699D9",
"e. c #399CDA",
"r. c #3EA1CF",
"t. c #3DA1D2",
"y. c #3BA2DB",
"u. c #3AA9DD",
"i. c #2D97E4",
"p. c #349BE1",
"a. c #38AAE4",
"s. c #28A2F2",
"d. c #47A7C6",
"f. c #4BACC3",
"g. c #43A6CC",
"h. c #46A9CC",
"j. c #49ABCB",
"k. c #4FB1C4",
"l. c #4CB3CC",
"z. c #4CB8CE",
"x. c #52B3C2",
"c. c #53B4C1",
"v. c #53B4C2",
"b. c #55B5C1",
"n. c #56B9C3",
"m. c #42A5D2",
"M. c #43ABD4",
"N. c #46B1D3",
"B. c #859D82",
"V. c #869C85",
"C. c #8DA585",
"Z. c #8DA686",
"A. c #90A785",
"S. c #93AA86",
"D. c #95AC89",
"F. c #98AF8A",
"G. c #81BE87",
"H. c #96B08C",
"J. c #9AB18C",
"K. c #9DB591",
"L. c #A1B794",
"P. c #A3B996",
"I. c #A6BB9A",
"U. c #AABE9C",
"Y. c #B8BA99",
"T. c #86C384",
"R. c #ADC09E",
"E. c #B7C59E",
"W. c #AFC2A0",
"Q. c #AEC8AE",
"!. c #B3C5A3",
"~. c #BAC6A4",
"^. c #B6C9A6",
"/. c #BBCAA6",
"(. c #B5C6AD",
"). c #B6C9A9",
"_. c #BCCCAB",
"`. c #BED0AE",
"'. c #A3C7B0",
"]. c #B2CDB6",
"[. c #BBCDB2",
"{. c #BAD2BA",
"}. c #C4CD86",
"|. c #CCD487",
" X c #D1D785",
".X c #C5CB97",
"XX c #CAD394",
"oX c #CCD29A",
"OX c #D5DC96",
"+X c #D5DB9B",
"@X c #C6CAA3",
"#X c #C3CCA3",
"$X c #C2CEAD",
"%X c #CACEAC",
"&X c #C6D1A6",
"*X c #C9D3A4",
"=X c #C3D1AD",
"-X c #CAD2AD",
";X c #D6DCA5",
":X c #C2CEB1",
">X c #C8CFB4",
",X c #C4D3B3",
"<X c #CAD4B4",
"1X c #C5D5BA",
"2X c #CAD6BB",
"3X c #C7D8BE",
"4X c #CCDABD",
"5X c #D3D8B7",
"6X c #D2DBBD",
"7X c #DAE0A5",
"8X c #DCE1AC",
"9X c #DDE3B3",
"0X c #BBD6C0",
"qX c #CDDBC2",
"wX c #C8D8C5",
"eX c #D2DEC4",
"rX c #D6DFC7",
"tX c #D4E0C6",
"yX c #DAE2C4",
"uX c #D5E2CA",
"iX c #DBE4CC",
"pX c #DDE9CF",
"aX c #DBE7D1",
"sX c #DAE6D6",
"dX c #DDE8D3",
"fX c #E0E7CE",
"gX c #E1EAD5",
"hX c #E1EBDB",
/* pixels */
"#.#.#.#.#.#.#.#.#.#.#.#.#.#.#.#.#.#.#.#.#.#.#.#.#.#.=.=.#.=.#.@.@.@.@.@.@.@.@.#.*.*.*.%.*.%.$.$.$.$.$.$.$.$.$.#.#.#.$.$.$.$.$.$.",
"#.#.#.#.#.#.#.#.#.#.#.#.#.#.#.#.#.#.#.#.#.#.#.#.#.#.=.=.#.+.=.@.@.@.@.@.@.@.#.#.%.%.*.*.&.%.$.*.$.$.$.$.$.$.#.#.#.#.$.$.$.$.$.$.",
"#.#.#.#.#.#.#.#.#.#.#.#.#.#.#.#.....#.+.#.#.#...#.#.=.=.-.=.-.+.@.+.@.=.#.=.@.#.%.%.&.%.%.&.*.$.$.$.$.$.$.-.*.*.#.$.$.-.$.$.$.$.",
"#.#.-.#.#.#.#.O.-.-.%.#.#.O.O.#...=.#.#.#.#.@.@.@.=.=.=.-.-.+.+.=.+.+.+.#.#.#.=.#.=.#.%.&.%.&.*.$.$.$.*.$.$.*.$.-.$.$.$.$.$.$.$.",
"#.#.O.O.+.O.O.+.#.O.#...#.#...+.....+.#.+.#.+.+.@.=.#.=.=.-.#.+.&.-.&.=.=.#.#.=.+.#.#.-.=.#.+.=.-.-.$.$.#.*.$.*.%.&.#.#.$.#.#.#.",
"X.] X.X.X.X.X.X.X.X.X.....X.X...o.O...X.o.X.o.o.o.@.+.+.&.#.#.-.&.+.+.+.+.+.+.+.+.o.O.o.o.+.o.X.X.X.X.X.X.X.X.X.X.] X.X.] o.o.] ",
"] ] X.]  . . .X.X.X.X.X.X.X.X.X.X.X.X.X.X.X.X. . . .X.X. .X.X.X. .X.X.X.X.X.X.X.X.X. .]  . . . .] X.] X.] n.X.] ] ] ] ] ] ] ] ] ",
"] ] ] X. . . .] X.] ]  . .] X.]  . .X.X.X.X.X. .] ] ] ] n. .] ] ]  .]  .n.] ] ] ] ] ] ] ] ] ] ] ] ] ] ] ] ] ] ] n.] ] ] ] ] X.] ",
"] ] ] _ ] ] ] ] _ ] ] ] ] ] ] ] _ ] ] ] ] ] ] ] ] ] ] ] ] ] ] ] ] ] ] '  .] ] ] ] ] ' ] ' ] ] ] ] ] ` ] ` ] ] ] ] n.] ] ] ] ] ] ",
"n.n.x.n.x.' x.x.c.c.c.' ` ` ' ] ] n.] ' ' ' b.' ` ` ` ' n.] ] ]  .] ] ] n.z.z.n.] ] ' ] ] ] ' ' ' ' ' ] ] n._ ` n.' b.n.n.` ` ' ",
"` ` x.x.` ` ` ` c.c.c.c.x.x.x.x.v.v.x.x.b.c.` c.` ` b.x.b.b.n.] ] ' ] z. .T.T.| n.n.n.] ] ' ' n.` b.n.` x.` ` ` ` b.` ) b.x.x.x.",
"x.` ' x.x.x.x.' c.c.c.c.x.x.x.x.k.c.c.x.c.c.x.c.x.x.x.x.n.' ' ] ' n.n.| y W ~ t | k.c.c.c.c.c.` ` b.b.` ` ` ` ` ` ` ` ` ` ` ` b.",
"' n.' n.n.n.` ` ` x.x.x.x.x.x.x.x.x.x.x.c.c.c.c.b.x.c.] n.b.` x.l.l.u.y ~ a.a.y ~ N.z.N.l.c.` ` ` ` b.` ` ` ` ` ` ` b.` b.b.b._ ",
"c.c.b.` ` ` x.x.` x.x.x.x.x.x.k.x.x.x.x.x.x.c.` x.' c.c.b._ ` l._ { l.Q W N.| W h.] ~ y Q z.n.n.b.n.b.b.` n.` ` ` ` b.b.b.b.b.b.",
"x.x.` ` ` ` x.v.x.x.k.k.k.f.f.f.f.k.` k.k.k.k.x.x.` ` ` n.n.l.^ u ! T.| T. ...G.n.^ { | t | k.c.c.b.b.x.b.x.x.x.` ` x.` b.x.b.b.",
"' b.b.` ` b.x.x.x.x.c.x.x.c.c.x.x.k.f.k.k.k.k.k.k.c.n.' n.l.| r k.u.] ^ ^ ~ ~ Q ~ { l.} t _ k.n.x.x.x.x.b.x.x.x.x.x.b.b.b.b.b.b.",
"n.b.b.x.x.x.x.b.x.x.x.x.x.c.c.v.v.n.v.v.v.v.v.k.v.l.v.n.b.v.] G.^ ^ _ { Q G.^ { W Q ! t | N.x.x.n.n.x.x.x.x.x.x.k.k.x.x.x.x.x.c.",
"x.k.k.x.x.c.x.x.x.` x.x.x.x.x.c.l.k.x.v.v.k.n.l.l.k.v.v.v.v.l.v.{ | { { { ! _ ` y ! k.N.h.` x.k.x.f.x.x.k.x.k.k.k.k.f.f.k.k.k.k.",
"f.f.f.f.) f.f.f.f.f.f.f.f.f.f.f.f.f.f.f.x.j.k.k.c.v.c.c.v.k.v.l.N.[ { f.[ [ Q M.u.e [ N.f.f.f.f.f.f.f.f.f.f.f.f.k.f.f.b.f.` d.f.",
"d.g.g.d.g.d.d.f.f.d.f.d.d.d.f.d.f.f.d.d.d.f.f.j.k.x.k.k.k.l.l.u.~ e s.f.W m.Q ! [ Q f.h.j.h.h.h.h.j.g.j.l.j.d.j.g.h.g.d.g.g.g.j.",
"r.r.r.r.0.g.g.d.m.d.m.g.g.h.h.h.d.d.g.g.d.d.d.j.d.j.k.f.j.j.h.m.` G.[ ! [ i.h.Q Q g.e.r.m.g.m.m.m.t.m.,.P ,.m.t.r.r.r.t.,.d.t.g.",
"r.0.0.0.0.0.,.0.t.r.r.r.m.r.r.m.m.g.g.g.h.h.j.d.h.h.j.M.m.m.m.m.e.m.) d.e.0.y.i.i.y.t.t.t.t.t.t.y.m.,.:.>.z y.m.0.0.t.t.t.r.0.r.",
"0.,.0.r.t.0.t.t.t.0.0.0.0.0.r.t.m.t.g.g.h.m.m.m.t.0.e.9.q.9.q.q.q.q.1.6.9.9.6.9.9.w.q.q.q.9.7.0.e.y.:.>.t.;.y.9.;.z >.y.0.0.0.0.",
"w.w.9.0.e.e.0.0.e.0.0.0.0.0.e.0.0.r.0.m.m.9.>.1.1.1.1.<.1.<.<.<.<.<.<.4.4.4.1.6.2.6.6.q.8.8.8.q.K K 2.1.J J 9.;.e.;.l p.q.q.q.9.",
"8.w.w.q.w.w.w.w.w.e.e.w.e.e.e.e.e.0.0.0.9.6.<.<.<.<.3.3.<.3.<.3.<.4.3.3.3.3.3.3.3.4.6.q.q.q.p.<.m 2.:.1.2.6.:.9.6.:.2.w.q.i.q.q.",
"8.8.8.q.q.q.q.q.q.i.q.q.q.q.q.e.q.q.q.q.q.8.6.4.3.3.<.3.3.4.3.4.<.6.6.4.6.6.6.6.3.6.6.q.i.q.q.q.:.2.q.<.2.:.1.6.:.2.w.q.q.8.q.q.",
"q.q.6.8.6.q.6.6.8.6.7.7.6.7.8.8.8.8.q.q.7.q.7.2.6.5.<.<.<.L <.<.<.<.<.<.<.3.3.L 3.3.3.6.6.q.6.8.p.2.<.K J ;.:.6.w.q.8.8.8.8.8.q.",
"2.2.2.6.6.2.6.6.2.6.2.6.6.7.8.6.2.2.2.1.4.1.1.L L <.L G L L G C L V G L G L L L 3.3.3.6.6.6.q.8.i.B l 2.:.K :.H i.2.8.2.2.2.2.6.",
"1.1.:.1.<.<.<.<.L 1.L 4.L 4.L L L L L L L L L L L L L L L L L L L G L G L L L L 3.L 3.6.4.3.6.6.6.<.K 1.q.L L 1.6.6.2.2.;.1.:.1.",
"<.<.<.G L <.<.<.L L L L L L L L L L L L L L L L L L L L L L K <.<.<.<.3.3.3.3.3.<.<.3.3.6.6.3.6.6.6.6.6.<.5.3.6.<.<.<.L L 1.L L ",
"V V F K V K F V L L V L L F L F L L V V L V L L L L L K <.L <.L <.<.4.4.3.4.3.3.3.3.3.L 4.4.3.3.3.L <.L L <.<.L L V L K L L L V ",
"N N N N N N M N N N N N N V N V V V V V K L L L L L <.<.<.1.<.1.<.<.L <.L G L L L L L L F F F G F F V V V N V N V V N N m N N N ",
"n m N N N N N N N N N N N N N N N N V N N V K V N K V L K V K V V m N N m N m n N n N v v M M M M n n n M n N M N M M n m n m m ",
"N N n m N N N M M A S S S Z D D M D M N N N N V V N n n v v v v n N v v n n n v Z v Z G G Z Z Z Z Z Z M M D M M M N M M N n N n ",
"v D v D A A Z Z D H x x x x z m V D M Z Z D M N M M v n l l j j v J c j N j j l k h k # 7 / U U / x z H N N M D D Z Z Z Z v D A ",
"H H B m H J x ( E R B.B.V.V.R T E U c k x ;.H z x k c Y 4 Y T T Y + X O . O < ; > > - $ $ * w w w 0 V.T T Y Y Y U U c / x z H H ",
"R V.T R R B.w w B.q 0 6 6 2 2 2 > > 7 @ , : < Y 4 3 0 9 6 0 0 0 : X   . o , 0 1 , T * & % % 7 < 3 3 3 3 7 8 8 8 8 8 9 9 q V.0 R ",
"0 q q q 8 5 3 3 3 1 4 3 3 4 1 , 1 1 3 > 1 , 3 > 1 @ ; # , , @ 4 + O   X R R 1 T 4 R 7 @ @ B.T 4 5 6 T 4 4 3 4 4 4 4 6 4 0 B.B.0 ",
"q B.B.B.V.B.q B.B.q B.q q B.B.B.B.B.B.B.C.C.C.C.6 1 ; ; , , , 4 2 1 @ o 6 5 0 B.C.B.1 + , C.w C.V.V.A.C.C.B.B.B.B.q B.B.B.B.B.B.",
"D.A.A.A.C.C.Z.Z.Z.Z.C.A.S.S.F.D.D.A.A.S.Z.A.C.S.C.C.B.A.B.C.C.C.w 1 @ 1 D.C.C.C.Z.C.S.Z.Z.C.A.A.A.A.C.A.C.D.D.D.C.D.S.C.D.D.S.A.",
"S.S.S.S.S.S.S.S.S.S.S.S.D.F.F.F.F.D.S.S.D.F.S.S.C.C.Z.Z.S.Z.A.S.D.w S.K.C.C.C.Z.D.S.S.S.D.D.D.S.D.F.D.S.S.S.F.D.J.J.D.F.D.D.S.S.",
"F.S.A.D.S.A.S.S.e D.D.D.S.S.S.S.A.D.S.e w D.S.A.S.S.S.S.S.S.D.A.S.F.K.J.D.C.Z.Z.D.S.D.D.D.J.D.S.w F.w D.S.F.S.S.S.F.D.S.D.S.S.S.",
"F.J.J.F.F.J.J.J.J.J.F.D.D.A.A.S.Z.A.S.S.A.S.S.S.F.F.D.H.J.S.F.D.D.H.H.S.H.H.H.H.S.H.H.H.D.D.K.J.L.J.F.J.J.J.J.J.J.J.J.D.F.F.F.F.",
"J.J.J.L.K.L.L.L.P.L.J.D.S.S.w S.S.A.S.S.S.A.S.F.J.J.J.H.J.F.F.J.H.H.D.D.K.K.K.K.J.K.J.J.K.K.P.I.I.U.K.J.K.J.J.J.J.D.J.J.J.J.J.J.",
"I.U.U.W.R.R.!.L.L.L.J.D.S.A.A.C.A.C.S.D.S.F.F.F.H.H.H.K.H.K.K.K.K.J.J.H.K.K.P.U.R.U.R.W.W.R.U.U.R.U.P.J.D.J.D.J.J.H.K.K.K.K.P.P.",
"!.).!.!.E.U.I.K.L.L.K.J.J.J.S.S.D.F.D.K.P.U.I.I.U.U.U.U.P.K.K.K.K.W.W.R.Q.).(.!.!.!.).).).^.^.!.E.R.R.R.U.I.I.L.P.P.P.I.W.E.!.!.",
"_.).).!.).!.U.U.P.L.P.U.I.U.U.U.U.U.U.U.W.!.!.!._._._.^.).W.!._.)._.=X3X2X,X=X_._._.=X_._.)._._.^.).!.`.).).!.U.R.~._._._.,X,X_.",
"[._.).^.)._._.R.I.P.U.U.W.U.W.U.U.U.R.!.!.U.W.!.!._.=X_.,X_.=X,X{.1X,X,X,X1X,X,X,X,X=X-X_.^._.^./.).!.E.!.!.)._.,X2X3X,X:X:X,X=X",
"=X=X_._./._.!.U.R.R.!.U.R.R.R.U.!.!.!.R.!.^.!.^._.=X=X`.:X=X=X:X,X,X,X`.<X1X,X<X2X<X<X=X/./.$X_._.^.E.E.^._.$X:X1X,X=X=X,X,X=X[.",
"`.`._.,X_.!.!.!.R.R.!.~.~.!.).#X^./.^.~.^.`.=X=X_.=X,X,X_._.=X=X*X*X*X&X=X=X<X<X<X<X<X=X,X=X/._._._.^.^._.<X:X$X,X,X,X,X,X=X=X=X",
").`.=X=X$X~._.)./.!.~.^.~.!.E.R./.!.!._.`._.=X=X`.,X,X,X%X*XoXoXoXXXoX&X&X=X=X$X`./.`.`.=X&X&X_.~.!._.$X^.$X,X<X,X,X,X[.`.=X=X`.",
"#X_.`._./._./.`.$X=X=X_._.$X_._.(.Q.].).).[.).E.~.,X,X*XoX.X.XoX*X*X#X=X=X`._././.E.~././.^.!.!.E.R.=X4X1X,X,X,X:X,X,X,X=X,X=X=X",
".X#X%X<X2XqXqXqXtXtXtXeXeXrXsXwX.XXX}.s s s }.XX;X5XoX.XoXoXoX<X@X=X&X#X$X$X_.,X=X1X<X4X2X2X3X3X3X2X:XqXeX1X,X,X,X,X,X,X=X,X=X#X",
"<X<XeXeXiXrXuXrXwXqXqXwXwXwX-X}.p i i a a  X+X8X9X+X.X*X=X-X=X,X=X#X.XE.%X5X2XrXpXpXuXtXtXuXeXeXtXtXtXtXeXeX2X2X,X,X,X%X<X-X,X@X",
"-X6X5X:X,XqX3X,X4XwXwX=X/.s i i p d d  XXX7X7XOXoX*X<X1X,X-X,X=X=X%X*X-XrXrXuXrXqXtX,X3XqX3X1X4XuXiXdXpXiXuXtXqXqXqX%X@X=X<X<X%X",
"<X<X~.:XwX1X).[.2X=X|.d a p d f f g g d  X X X XXX4X4X3X=X~.<X-X2X<X@X5XqX<X1XqXqX4X,X3X,X4XtXyXiXiXpXtXqXqXqXtXtXeX6X<X1X4X<X<X",
"<X6XY.Y.2X,XY.@X}.s g a f f  Xf g g f  X X XOX+X7XqXeXeX2X@X%X,X2X<X@X<X,X(.>X4X,X[.3X4XeXiXpXpXpXqX3XqX4XtXrXqXeXeXeXtXqX1XtX,X",
"<X%X<X<X=X5X-X;Xs s OX X|.+X;X+XOXOX+X+X;X8X7X7X8XuXrXrXeX6X>X2X2X4X5X-X#X_.2X<X1X1XrXuXiXuXiXyXpXeX3XpXiX0X{.qXtX4XtXqX,XqXeX,X",
"2X%X~.5X%X<X5X;X+X+X;X8X7X+X+X;X9X8X8X9X8X9X5X5X5X3X6XeXeXeX4X6XtX<X=X4XY.Y.4XeXtXuXtXiXuXtXuXtXrXrXeXtXtX{.].qX4X,XqX1X2X<X<X2X",
"1X_.2XrXfXiXhXgX9XyX;X+X+X8X9X9X5X5XeXrXyXtX9XtXtX3XrXrXeXeX3X2X6X<X_.2X4XeXqXrXiXuXrXrXtXuXuXtXqXeXtXqXtXiXfXeX1XuX3X[.,X<X<X,X",
"4X3XiXhXgXfXhXhXhXgXgXpX9XsXhXuX>XeXrXqXqXeXeXeXwX{.qX3XqX3X[.qX4X4X3XqXiXiXuXiXuXrXiXrXrXeXrX>XqXyXrXuX,XqXuXqXeXtXqX1XQ.'.].qX",
"uXdXuXiXiXiXpXiXpXgXgXsXsXiXuXuXsXiXuXeXqX2X3X2X2XqXqX{.qX3XeXeXtXiXqXuXpXaXdXdXiXuXrX6XaX1XqX4XeXrXeXrX1XeXtXuXrXeXqXqXqX{.wXeX",
"dXhXsXhXhXgXgXpXgXhXdXdXdXaXsXdXsXiXeXeXeX4X4X3X4XqX4XtXiXiXrXiXgXdXgXgXiXiXdXyXrXrXrXeXeXrXeXyXiXtXrXrXyXtXtX3XqXuX6XeXtXtXiXiX",
"dXhXhXhXhXhXhXhXhXhXdXaXsXaXsXsXiXeXeXqX4X4X4X2XeXrX6XfXdXdXpXpXpXdXpXpXpXiXiXeX5XrXrX6XqXrXeX6XyXuXtXeXtXtXtXqXqXqXtXtX6XtXuXiX"
};
