/* XPM */
static char *_a89b77713fd46d0f47c56474ca4be21OPNEe80lkiZWHxA8[] = {
/* columns rows colors chars-per-pixel */
"64 64 239 2 ",
"   c #051E2F",
".  c #283E51",
"X  c #3A4D44",
"o  c #394D47",
"O  c #3E534A",
"+  c #42554C",
"@  c #445A4D",
"#  c #445753",
"$  c #495553",
"%  c #465A53",
"&  c #4A5C55",
"*  c #4C5E5A",
"=  c #4A604F",
"-  c #4C6255",
";  c #4C6359",
":  c #516757",
">  c #51655C",
",  c #556B5C",
"<  c #596D5E",
"1  c #59715E",
"2  c #4F6660",
"3  c #546A61",
"4  c #5A6E61",
"5  c #5D7464",
"6  c #5B7668",
"7  c #667A66",
"8  c #617569",
"9  c #637A6B",
"0  c #757F68",
"q  c #6A7673",
"w  c #79876C",
"e  c #698875",
"r  c #7A8472",
"t  c #7E8A73",
"y  c #8E906D",
"u  c #818A74",
"i  c #828D7B",
"p  c #8B9579",
"a  c #969976",
"s  c #9CA07C",
"d  c #0974BD",
"f  c #357BB6",
"g  c #4D71AF",
"h  c #157EC7",
"j  c #097CDB",
"k  c #3079C9",
"l  c #5590AB",
"z  c #0982DF",
"x  c #1B88DE",
"c  c #2286DA",
"v  c #308FD9",
"b  c #3896DB",
"n  c #39A9DD",
"m  c #0884E5",
"M  c #1484E3",
"N  c #1C85E5",
"B  c #1289E3",
"V  c #1D89E4",
"C  c #1887EB",
"Z  c #1D89EB",
"A  c #1B94EA",
"S  c #0F8CF0",
"D  c #2386E5",
"F  c #248AE5",
"G  c #298BE4",
"H  c #2386E9",
"J  c #248DE9",
"K  c #298AE8",
"L  c #328DE9",
"P  c #2491E6",
"I  c #2492EA",
"U  c #2896E8",
"Y  c #259AEB",
"T  c #2A9CEA",
"R  c #3A94E8",
"E  c #28A5EA",
"W  c #2CA4EA",
"Q  c #2EA9EB",
"!  c #33ABE6",
"~  c #33ADEA",
"^  c #2FB8E7",
"/  c #32B3E7",
"(  c #35BDE7",
")  c #39BEE7",
"_  c #34B4EA",
"`  c #39B4E9",
"'  c #35BAEA",
"]  c #39BEE9",
"[  c #598DD2",
"{  c #44ADDB",
"}  c #46B9D9",
"|  c #4BBBDB",
" . c #448EE4",
".. c #4996E9",
"X. c #5898E7",
"o. c #5097F0",
"O. c #689BE6",
"+. c #779AE7",
"@. c #52ABE8",
"#. c #7AA3EB",
"$. c #3EC9DE",
"%. c #36C1E6",
"&. c #3AC5E5",
"*. c #3ECBE4",
"=. c #35C1E9",
"-. c #3BC1EA",
";. c #3CC8E8",
":. c #4DC7DA",
">. c #42CEDF",
",. c #54C8DB",
"<. c #54CBDC",
"1. c #45D3D5",
"2. c #46DFD5",
"3. c #4ADED6",
"4. c #46D4DE",
"5. c #4AD2DD",
"6. c #45DFD9",
"7. c #4BDEDA",
"8. c #54DFD7",
"9. c #53D5DB",
"0. c #59D6D9",
"q. c #54DCDB",
"w. c #5CDDDA",
"e. c #62DEDD",
"r. c #45E1D6",
"t. c #4CE1D7",
"y. c #45E2D8",
"u. c #4AE0D8",
"i. c #4EE1D9",
"p. c #51E1D7",
"a. c #55E1D7",
"s. c #52E1D8",
"d. c #56E0D9",
"f. c #57E3DD",
"g. c #5AE1DA",
"h. c #5DE1D9",
"j. c #59E6D9",
"k. c #63E1DA",
"l. c #64E3D8",
"z. c #6AE1DA",
"x. c #67F2DD",
"c. c #47C6E3",
"v. c #42CDE3",
"b. c #49CEE2",
"n. c #45D2E1",
"m. c #4AD1E2",
"M. c #53DAE0",
"N. c #56D8E1",
"B. c #8A9583",
"V. c #949B8A",
"C. c #9BA485",
"Z. c #9CA394",
"A. c #A2A999",
"S. c #AEB196",
"D. c #AAB39E",
"F. c #95AEB6",
"G. c #ACB3A4",
"H. c #ACB7A9",
"J. c #B3BBA8",
"K. c #ADA6B9",
"L. c #B5ABB7",
"P. c #B2B1B0",
"I. c #C5B7AA",
"U. c #BAC49F",
"Y. c #BAC4AB",
"T. c #BBC7B2",
"R. c #B5CDB6",
"E. c #C3CE9B",
"W. c #C3D29B",
"Q. c #CAD49C",
"!. c #D6D69D",
"~. c #E5EB9E",
"^. c #C5CAA9",
"/. c #C6D4A3",
"(. c #CAD4A7",
"). c #CDD3AF",
"_. c #C6C9B7",
"`. c #D3DABA",
"'. c #EADFBB",
"]. c #DCE4BA",
"[. c #E8E9AA",
"{. c #EAE9B4",
"}. c #E7E7BA",
"|. c #EAE9BC",
" X c #929FC9",
".X c #AD9AD1",
"XX c #B79AD8",
"oX c #B9A9D0",
"OX c #889BE8",
"+X c #969CE8",
"@X c #B68EE7",
"#X c #A996E6",
"$X c #B494EF",
"%X c #B898EA",
"&X c #8DABEC",
"*X c #9BA5E7",
"=X c #A7A5E9",
"-X c #B7A7EA",
";X c #B7B0F1",
":X c #CEAFD2",
">X c #C89BEA",
",X c #C497F2",
"<X c #CAA4EB",
"1X c #D9A9ED",
"2X c #D7B4EE",
"3X c #C8A8F4",
"4X c #D7A8F5",
"5X c #DAB6F5",
"6X c #E6B3EE",
"7X c #D6DDC2",
"8X c #DCD1D8",
"9X c #D7E0C4",
"0X c #DCE3C3",
"qX c #DBE2DD",
"wX c #E2E6C4",
"eX c #E9E6C4",
"rX c #E5E9C4",
"tX c #EBE9C5",
"yX c #E4E5CB",
"uX c #E9E6CC",
"iX c #E5EACA",
"pX c #EAE9CB",
"aX c #EBF2C4",
"sX c #ECF2CE",
"dX c #F2F8CB",
"fX c #EAE6D4",
"gX c #E7E8D6",
"hX c #EAE9D4",
"jX c #EAE7DB",
"kX c #EBE9DB",
"lX c #F3EFD2",
"zX c #EDF3D1",
"xX c #F3F7D5",
"cX c #F1C5F5",
"vX c #E7E7E5",
"bX c #EAE6E4",
"nX c #EAE9E3",
"mX c #EAE9EB",
"MX c #FEFFE6",
/* pixels */
"r.2.2.r.t.r.t.u.r.y.3.r.2.2.2.2.r.y.t.r.r.y.y.r.y.6.n.u.r.t.r.2.2.2.r.2.r.r.r.2.2.2.2.r.r.r.r.r.r.r.r.r.r.y.r.r.t.r.t.r.r.t.r.r.",
"r.r.r.r.y.t.u.t.u.u.y.t.u.2.6.6.u.u.r.r.y.r.y.y.y.y.y.y.t.r.2.3.3.3.t.u.r.y.6.i.2.2.r.t.t.r.r.r.r.i.r.r.r.t.y.t.t.t.r.t.t.t.t.r.",
"i.y.y.u.t.i.p.7.i.u.i.u.u.u.i.i.i.t.u.i.i.t.u.j.p.3.i.2.>.8.3.7.t.3.i.s.i.3.i.7.t.3.t.3.t.t.t.t.p.i.i.i.i.i.i.i.t.t.t.p.8.p.8.t.",
"8.d.s.8.d.d.d.g.d.f.s.q.f.s.8.p.a.d.f.f.f.j.g.} <.x.5.:.:.:.l.8.i.t.i.3.t.i.i.i.t.p.p.p.p.t.p.a.s.p.p.d.p.f.a.p.p.t.p.p.s.p.8.p.",
"s.d.d.d.g.d.d.d.8.g.q.8.8.w.f.g.f.h.h.h.k.x.,.| | w.<.e.<.,.x.k.i.p.8.a.p.p.3.p.p.3.p.p.p.s.s.d.s.p.s.p.s.s.p.p.p.i.i.p.p.p.7.8.",
"i.i.8.a.g.d.d.s.8.8.8.8.8.8.d.d.8.f.8.w.f.j.a.0.| | <.<.<.0.0.k.a.a.8.8.8.8.8.8.8.8.8.a.d.a.g.8.d.p.p.s.8.s.p.p.p.s.p.p.i.i.7.i.",
"d.8.g.8.g.g.d.d.d.8.8.8.8.8.8.8.q.s.7.8.q.f.9.:.} :.c.m.N.m.| <.j.h.h.8.g.g.k.h.h.h.h.h.h.8.g.8.h.h.h.g.h.f.g.g.a.j.d.d.a.g.g.d.",
"h.h.h.e.w.h.h.w.e.8.8.g.f.8.g.q.w.8.8.d.8.<.:.,.} 9.9.:.:.j.0.{ l.l.e.l.l.h.k.e.k.h.h.e.k.k.k.h.h.k.k.l.k.k.k.h.k.h.k.w.h.h.h.k.",
"e.k.h.e.k.e.k.w.w.k.h.w.h.e.w.w.w.w.w.e.9.} 0.,.<.,.,.:.,.| { <.l.k.z.z.z.z.z.z.z.z.k.l.z.z.z.z.k.z.z.k.z.k.k.k.k.k.z.k.k.k.k.k.",
"e.w.w.w.w.w.w.w.w.8.w.w.w.w.w.w.w.w.w.w.a.,.| <.e.c.<.<.x.0.<.w.w.e.k.z.z.z.z.z.z.z.z.z.e.e.k.e.k.k.k.k.e.e.e.e.e.e.M.k.e.w.w.8.",
"0.q.9.M.0.q.8.q.0.9.0.0.9.0.0.9.9.9.q.9.0.w.w.h.{ ,.f.} ,.q.0.9.M.M.q.0.f.f.M.f.M.q.0.M.q.M.M.q.M.M.M.M.q.M.M.M.M.M.M.q.M.q.9.q.",
">.4.5.4.5.5.5.5.5.5.m.5.5.5.5.1.5.5.5.:.1.5.5.5.{ c.f.} } 5.4.:.n.m.n.n.n.n.m.6.n.7.n.n.4.n.n.n.n.n.n.n.m.n.7.n.n.n.n.5.4.4.m.n.",
">.>.$.>.v.n.$.$.>.v.>.v.>.>.>.>.>.>.>.>.>.>.>.4.) n ` n >.>.>.>.n.n.n.n.*.y.*.n.n.n.n.n.v.n.v.4.n.v.v.>.v.n.*.*.*.*.;.v.>.4.>.v.",
"v.4.b.v.>.n.n.v.*.n.v.v.>.v.*.c.v.*.>.v.>.*.v.$.n.c.n >.>.$.>.>.n.n.*.*.n.*.n.n.n.n.v.v.v.4.n.b.n.n.n.n.v.v.n.n.n.m.m.m.v.v.>.4.",
"b.v.b.v.v.v.*.n.n.*.v.v.v.v.v.v.*.v.v.v.*.v.n.v.-.n.v.v.$.*.*.*.*.*.*.*.*.*.*.*.v.n.v.v.v.v.v.c.b.b.b.b.b.b.m.m.m.m.b.m.m.m.m.b.",
"v.v.v.;.*.&.&.&.&.;.&.&.;.&.&.&.&.&.&.&.&.&.&.&.&.&.&.&.&.) &.&.&.&.;.;.;.;.*.*.;.v.;.v.;.v.v.v.v.&.v.v.c.v.v.;.v.v.v.v.v.c.c.v.",
") %.&.%.%.%.%.%.=.=.=.%.=.&.%.=.&.( ) %.) =.=.( =.=.( %.%.%.) ) =.^ ' =.=.=.' %.=.=.=.=.=.=.=.=.' =.=.=.=.=.=.=.%.=.=.=.&.%.=.&.",
"-.-.-.-.) ) ) ) -.-.' -.] ] ] ] ] %.) ) ) ) ( ( ' ] ( ( ( ( ( ) ' ^ ^ _ ^ _ ' ' ' / ] ] ' ' ' ' ' ] ] ' =.' =.] ) ] ] ] ] ] ] -.",
"-.-.-.-.-.-.) ) -.-.-.-.] -.-.-.] -.&.] ) -.] ] ] ] ] ] ) ) ) ) =.=.' =.' -.-.-.-.=.-.=.=.=.-.-.=.-.=.-.=.-.&.-.-.] -.-.-.] -.-.",
"-.] -.] ] ] ) ) ' -.-.=.] ] ] ] ] -.] ) ) ] ) ) ] ] ] -.-.-.&.] -.-.=.-.-.-.-.-.-.-.-.-.-.] ] ' -.-.-.=.' ] ] =.] ] ] -.] ] ] ] ",
"' ' ' ' ' _ ' ' ' ' ' ' / _ ' _ ' _ ' ' _ _ ' / ' ' ' _ _ ' ' ' ' ' ] ' ' ' ' ' ' -.' _ _ _ _ ' _ ' ' _ ' ' _ _ _ ' _ _ ' ` ' ' ",
"_ _ _ _ _ _ _ Q _ Q _ Q _ _ _ _ _ _ / _ / / / / Q _ _ _ _ _ ` _ _ ' ` ` _ _ ` ` ` ' ' _ _ _ _ _ / ' _ _ / / / ~ ~ _ _ _ _ _ _ _ ",
"_ _ _ _ _ _ _ _ _ _ _ Q _ _ _ _ _ ^ Q / _ _ _ / _ _ _ _ _ _ _ _ _ _ _ _ ' _ _ ' _ ' ' ' ' ' ' ' _ _ ' ' _ _ ' ' ' _ _ _ _ _ _ _ ",
"_ _ _ ' _ _ _ _ _ _ ' _ _ _ _ _ _ _ _ _ _ _ _ _ ` _ ' _ ` _ ` ` ' _ ' _ _ _ ' _ ' ' _ ' ' ` ` ` ' ' _ ' _ ' _ ' ' ` ' _ ` _ _ _ ",
"_ _ _ ~ ` ~ _ _ _ _ _ ~ ~ _ ~ ~ Q _ _ / ~ _ _ ` _ ` _ ` ` ` ` ~ _ ` ~ _ ` ` _ _ _ _ _ _ _ ` ` _ _ ` _ _ _ _ _ _ ~ / ~ / / ~ _ _ ",
"Q ~ ~ ~ ~ ~ ~ ~ ~ ~ ~ ~ ~ ~ ~ ~ ~ Q ~ ~ ! ! ~ ~ ~ ~ ~ Q ~ ~ ~ ~ ~ Q ~ Q Q ~ Q ~ ~ _ ~ ~ ~ _ ~ _ _ ~ _ ` ~ _ ~ ~ ~ ! ! ~ ~ ~ ~ ~ ",
"~ ~ ~ ~ ~ ~ ~ ~ ~ ~ ~ ~ ~ ~ ~ ~ ~ ~ ~ Q Q ! Q Q Q Q Q Q Q Q Q Q Q Q Q Q Q ~ ~ Q ~ ~ _ ~ ~ _ ~ _ ~ ~ _ ~ ~ ` _ ~ ~ ~ ~ ~ ~ ~ ~ ~ ",
"~ ~ Q Q Q ~ ~ Q ~ Q Q Q W ~ W ~ W Q Q Q Q Q Q ~ W Q Q Q Q W Q Q Q Q Q Q Q Q Q ~ Q ~ ~ _ ~ ~ ~ ~ ~ ~ ~ ~ ~ ~ ~ ~ ~ ~ ~ ~ ~ ~ Q ~ ",
"~ Q ~ W Q Q ~ Q Q W W W W Q W W W Q W W Q W Q W Q Q Q W Q Q W Q W Q Q Q Q ~ W Q Q Q _ Q ~ ~ ~ ~ ~ ~ ~ ~ ~ ~ Q Q Q Q Q Q W Q Q Q ",
"Q Q Q W Q W W Q W W Q W W W W W W W W W E W W W W W W W W T W W Q W W T E W W W W Q Q W Q Q Q W Q Q Q Q Q Q Q Q Q Q Q Q W Q Q W ",
"T T E E E T W T W T T T W T W W W T T W T T T T T T T T T T T T T Y Y Y Y Y Y Y Y Y T W W Y Y E W Y T T T E E E W W E A E E W T ",
"Y Y I I Y Y Y Y T T T T T Y Y U U T T Y Y T T T T T T T T T T Y A I Y A I I I I I Y Y A Y Y Y Y Y Y Y Y Y I Y T A S Z ! P S A T ",
"I I J J I I I I I I I Y I I I I I P A I I I I I Y U I I Y U U I J J I J I J A I I I I Y I I I I I I Y I I I I A m ..;X2X#XX.J A ",
"J J J K I I I I I I Z I I I A L I J H J J J I I J J I I K I I I J J H J H J J J J I I J I I I J I Z I Z J I C S #.2X<X-X6X<XO.B ",
"J I K I I I I I Y I I I I I Y I I I P I I Z I P P P P P I Y I K J H Z H Z J H J J J I K J I J J J J J J J I A &X6XOXz ! cX>X+XL ",
"J J I I I K I I I I I I I Z S I I P F I I I I P I I I I U K Y J J J H H H H V J J I K I I J L I L I J J J m @.6X*XP m B ;X1XOXZ ",
"J H J J J J J J J J J I C v l Z J J J J J J J I I J J K K I I J J J H H J V J J J K J J J J J H I Z H H J m #.cX*XR j @.1X%X..M ",
"H D D D D D F J J H K J S l e S H H H V V D D H F J J J F J K J H H H H Z Z D H J F F J J H J C h j J D N m O.5X%X=X&X5X5XO.z N ",
"D D D K K D D F F D H M L  Xl M D G F F D D D D D D D D F D D D H H H C k k Z H D J F F F F N R [  .N D H V H ;X>X4XcX1XOXK j K ",
"H K K N B K K K K D M o.;X3X4XX.M F F F K G K K G D K F D K K D H H H j g k H H J F H H H N L ;X6X%XO.x H F z +.2X>X>X-XO.j D K ",
"k Z N  ...V F c c F m *XOXv 5X&Xx V F F G F G F c G J F F F L F H Z M O.+X .x D F F D D H z O.cX>X#X#Xb m J z O.6X<X#X=XO.x C f ",
"f S B =X-XB m d c J z &X*XX.2X#.m M F F F G G G F H F G G F B F M j K *X+.+.c D F G F G H B ..2X<X%X#XOXc M z #.2X>X$X$X+.z m g ",
"=XL G 3X-XO.X.f c B m +.1X4X4X..c b D F P c G c F v F v G x b K .. .+.%X#X+XM V J V V x V m ..4X>XXX#X#X+.c X.4X<X%X,X,X+XL O.2X",
"4XOXOX4X3X5X1X#XO.o.+.$X,X,X,X#X;X3X .B F P P Z C V J P m o.4X$X3X>X,X@X@X#XOX+X+.H R  .H H +.<X@X@X@X@X#X+X$X>X%X%X@X$X$X3X4X3X",
"XX.X.X-X:XoXXX>X=X=XXXXX.XXXXX>X1X>X+Xc v P U b n b v P v oX:X:XL.L.P.K.P.G.I.I.P.F.L.K.F.P.L.P.K.K.K.K.K..XL.L.P.J.L.L.oXI..XXX",
"/.(.(.(.T./.)._.^.Y._.^.^.^.^.E.^._._.R.R.R.T.(.).(.R.Y.(.!.!.W.E.W.W.U.E.E./.E.Q.!.Q.!.!./.W.W./././././.(.(.Q.(.(.!./.W.W./.^.",
"w t t t r r t t w w y w u u w 7 w w w 0 y a s s a p y a p p C.V.p B.B.B.i u B.B.i u p B.V.B.B.p i t t B.r 0 r i i t u t 0 r t w ",
"X o O O O % % = @ - = @ + + + - - - = - > : ; ; - @ @ % ; % * % # # # # $ # # # # & % + % ; - % & + o o o o + O @ ; - ; ; > # O ",
"1 > , : , 6 6 9 7 9 q 1 , < : , < 7 9 6 6 e 6 8 3 4 6 9 8 6 4 8 < < < > , 4 8 4 < 5 1 , , < = - 5 5 1 5 4 > , , 5 6 8 9 9 9 1 < ",
"1 , : 1 1 1 1 6 5 6 9 5 5 < 4 1 , 8 7 5 3 , 5 e 1 < 5 5 5 5 8 5 , 8 < , , , 8 8 5 < < < , , 5 1 < < 4 e 6 4 4 4 3 , 8 9 5 : = , ",
"@ : ; ; ; : , > 2 ; + & * * & O # # # + ; - # O $ % ; > 3 $ O o # $ * $ & $ % & @ + $ % @ & ; O X X X X # % O * > * * 3 ; & * % ",
"D.Y.G.G.U.U.Y.U.^.^.D.Y.T.T.Y.J.G.H.G.G.J.T._.T.G.D.H.T.T.J.H.D.A.D.G.Z.D.G.D.G.Z.Z.G.G.D.A.Z.V.V.V.V.B.V.Z.Z.G.Y.J.G.H.D.G.J.S.",
"].rXrXaXdXdXaXtXaXdXsXsXdXiXiXxXlXdXlXxXMXhX_.7XMXxXiXiXsXzXxXxXiX'.0XyXiXiXzXsXzXlXsXzXxXrX0XiX0XyXyXsXiXhXiXzXsXxXxXxXxXsXrX].",
"`.0XiXrXrXiXiX0XiXiXiXiXyXyX0XgXuXuXuXxXI.q .   8 J.yX0X9XiX0X0X`.`.`.7X9X9X9X9X0X0X0X0X0X0X9X`.`.`.].9X9X9X9X0X0XiXtXpXrXrX0X`.",
"rXrXiXiXpXhXpXsXpXhXpXpXpXhXkXkXnXnX8X_.u q q $ & C.eXpXpXpXiXrX0X0X9X9X0XrX0XrXrXrXpXhXfXhXpXwX7X].].].}.aXrXrXiXhXhXpXrXtXpXrX",
"rX|.iXhXhXhXhXhXhXhXhXkXfXhXhXzXjXkXkXjXkXjXMXlXsXdXeXuXpXpXpXpXpX0XyXrXiXiXiXpXiXhXhXkXjXkXpXrXuX}.[.~.~.{.|.tXtXhXkXhXpX|.rX].",
"rXiXpXhXlXfXkXkXjXkXkXkXkXjXkXhXtXpXpXhXkXxXhXdXtXtXrXtXtXtXtXhXgXgXhXhXhXhXkXhXhXkXkXfXkXkXiXfXuXlXeX|.|.[.{.tXpXpXfXhXuXeXuXrX",
"hXhXkXkXnXnXnXkXnXjXkXkXfXkXhXfXhXhXpXhXhXpXiXtXtXeXtXtXpXpXpXtXhXhXhXhXkXkXkXhXkXnXkXkXnXkXhXtXeXtXeX{.|.{.[.{.|.tXlXpXpXtXpXhX",
"kXkXkXhXjXjXfXkXnXfXkXnXhXpXpXpXhXhXhXhXhXhXtXtXtX|.|.|.tXtXtXtXhXkXgXgXfXfXkXkXkXjXnXkXkXhX|.[.{.{.{.[.{.pXhXtX{.|.tX|.|.pXfXkX",
"kXjXjXfXlXfXfXnXhXpXhXkXhXhXnXnXnXbXmXmXjXjXkXfXpXtXpXtXpXpXpXpXpXhXhXpXpXpXtXpXtXpXpXpXpX|.{.|.'.}.|.eX|.tXfXhXhXhXpX|.iXnXnXkX",
"pXkXfXpX{.'.nXkXkXfXhXhXpXtXtXpXuXhXnXmXmXmXmXnXfXpXhXfXkXkXkXhX|.{.|.tX|.|.|.|.|.|.tXpXpXpXpXpXtXtXeXtXpXtXpXhXfXgXgXjXvXgXhXpX",
"tXtXtXtX{.[.{.tXpXhXtXtXtX|.|.|.rXtXhXhXkXnXkXpXrXeXtXlXkXjXkXhX{.|.tXrXtXtXtXtXpXtXpXfXnXkXkXkXhXhXuXlXhXyXkXnXnXnXbXvXbXiXpXtX",
"hX|.|.tXtXtX{.{.{.tX'.'.aXpXhXfXhXpXpXpXpXhXpXpXpXeXeXfXkXgXkXkXkXkXnXkXkXnXmXmXvXbXbXmXnXnXnXvXjXnXkXkXnXbXnXmXbXmXmXvXmXjXbXnX",
"kXfXhXhXtXpXpXpXtXhXfXjXfXfXnXnXnXkXkXkXhXhXkXjXjXuXfXfXfXfXhXjXmXmXmXmXmXmXmXmXmXmXmXnXnXnXnXnXjXjXbXmXnXnXbXjXnXmXvXnXbXqXmXnX"
};
