/* XPM */
static char *b4bb9804ae3348498e6c3d58f83db364bkLCL9DWxsfIJb1Z[] = {
/* columns rows colors chars-per-pixel */
"64 64 174 2 ",
"   c #5D472C",
".  c #62593F",
"X  c #726447",
"o  c #7B7978",
"O  c #9E5531",
"+  c #A7593E",
"@  c #D9632F",
"#  c #CB6337",
"$  c #DD613B",
"%  c #856D5E",
"&  c #9B6F5C",
"*  c #A3644D",
"=  c #B76746",
"-  c #A76D55",
";  c #AB755C",
":  c #BB7552",
">  c #8C7A6E",
",  c #9A7266",
"<  c #AD7866",
"1  c #C26C44",
"2  c #DD6342",
"3  c #C1714C",
"4  c #DB6E52",
"5  c #C77A55",
"6  c #C4765E",
"7  c #DA7250",
"8  c #F26E44",
"9  c #FF794B",
"0  c #85897B",
"q  c #969375",
"w  c #B78165",
"e  c #A58D7C",
"r  c #B58E7F",
"t  c #B99577",
"y  c #E9805B",
"u  c #DF8C6C",
"i  c #C28371",
"p  c #CE9272",
"a  c #E58664",
"s  c #DAC677",
"d  c #3F9FBE",
"f  c #5B8993",
"g  c #71838A",
"h  c #6D8991",
"j  c #6D919C",
"k  c #4F9CB3",
"l  c #419FBB",
"z  c #6195A6",
"x  c #4AA2B7",
"c  c #44A1BC",
"v  c #4DA4BA",
"b  c #4FA9BC",
"n  c #5BA5B7",
"m  c #50A6BA",
"M  c #50A5BC",
"N  c #50A6BD",
"B  c #52A6BD",
"V  c #58A5B9",
"C  c #51A8BD",
"Z  c #52A8BD",
"A  c #52AABD",
"S  c #54A9BF",
"D  c #54ABBF",
"F  c #56ADBF",
"G  c #5EA9BB",
"H  c #6BADBB",
"J  c #73AFBA",
"K  c #6FB0BC",
"L  c #3F9EC0",
"P  c #37AFD3",
"I  c #44A4C2",
"U  c #4CA4C2",
"Y  c #52A7C0",
"T  c #53A9C0",
"R  c #51AAC1",
"E  c #53AAC0",
"W  c #52AAC1",
"Q  c #54AAC1",
"!  c #55ACC1",
"~  c #56ADC2",
"^  c #59AFC1",
"/  c #59AEC2",
"(  c #50AFC9",
")  c #43B1CF",
"_  c #4BB1CD",
"`  c #59B0C2",
"'  c #5BB1C2",
"]  c #5DB2C2",
"[  c #5DB3C3",
"{  c #5DB2C4",
"}  c #4AB6D3",
"|  c #6CAEC4",
" . c #62B0C5",
".. c #969A8D",
"X. c #BE9984",
"o. c #A6A78D",
"O. c #BDAB94",
"+. c #ADB696",
"@. c #AEB896",
"#. c #AEB799",
"$. c #AEB99C",
"%. c #B2B695",
"&. c #B7BB96",
"*. c #B1B699",
"=. c #BBB49B",
"-. c #B1BA9C",
";. c #9FA7A1",
":. c #86B5B8",
">. c #8BB9BA",
",. c #97BAB5",
"<. c #9ABCB5",
"1. c #91BCBA",
"2. c #ADBFAF",
"3. c #B4BDA2",
"4. c #BCBDA7",
"5. c #BBBEA9",
"6. c #A2BEB4",
"7. c #CD9781",
"8. c #C8B88F",
"9. c #C4BBA4",
"0. c #C8B8A4",
"q. c #D4B8A4",
"w. c #B7C0A5",
"e. c #B9C1A6",
"r. c #B6C2AC",
"t. c #BBC4AD",
"y. c #BEC8AD",
"u. c #ADC4B6",
"i. c #B6C4B2",
"p. c #BCC6B1",
"a. c #B6CAB6",
"s. c #BEC9B3",
"d. c #BDCCBB",
"f. c #BAD1BD",
"g. c #DECA86",
"h. c #C5C39A",
"j. c #CCCBA5",
"k. c #C2C5AC",
"l. c #C9C4A9",
"z. c #C6C8AC",
"x. c #CDCCAD",
"c. c #D1CBAE",
"v. c #D3D0AE",
"b. c #C1C6B1",
"n. c #C9C5B4",
"m. c #C3CAB5",
"M. c #CACBB4",
"N. c #C5CDBA",
"B. c #CACEBB",
"V. c #D0CDB1",
"C. c #CBD1B7",
"Z. c #C6D1BB",
"A. c #CBD1BD",
"S. c #D1D3BE",
"D. c #D8D5BE",
"F. c #9FC1C1",
"G. c #BDCCC4",
"H. c #BCD9C7",
"J. c #CACFC0",
"K. c #D7CEC2",
"L. c #C6D1C1",
"P. c #CDD2C1",
"I. c #CAD8C6",
"U. c #C5DDC9",
"Y. c #CCDDC9",
"T. c #D2D5C3",
"R. c #D9D7C2",
"E. c #D5D9C5",
"W. c #DAD9C4",
"Q. c #D5D7C9",
"!. c #D4DACA",
"~. c #DADACA",
"^. c #CBE4D3",
"/. c #D9EFD8",
/* pixels */
"C b b v v v x x x x x x x x c x x x x x l x x x x x x x m m b m F F F ' ] G [  .{ { { { { { ' { { { ' { ' { / / / ~ ! ! ! ! E C ",
"C C C b C b b b x x x x b x x x x x x x x x x x x v v N D C m C C F F ' ] [ [ [ ' ' { ' ' { ' ' ' ~ ~ ~ ~ Q Q Q Q Q E E E C C C ",
"C C C C C C C C b b x x x x x x x x x x x x x v v m D D m N m D F C F ' ^ ' [ F ^ ' ' ' ^ ^ / / ~ ~ ~ ~ ~ Q E ^ ~ E ~ Q E E Q E ",
"! D ! C C b b b b x x b b x b x v x v v x x x m C N D C b m C C D F ! ' ^ ^ ' ' ^ ^ Q ^ ! ' ! / ~ ~ ~ E ^ ! Q Q Q ~ Q ~ ! ! ! ! ",
"E E C C C N b v v v x v x x x b v v v v v v v C C C C C m v N D b F ! ' ' ' C ! ^ E ^ Q Q ^ ! ! W E Q Q E Y E Y E E E C E E E E ",
"E C E C N v v v x v x x b x x b b m m C C C Q C N v v v m v m D ! F ! ! ! ! ' ! E ^ Q ^ ^ Q ^ Q Q Q E E E Y Y E Y N E E E C N Y ",
"v b v C v C v U b v v v v v b b b v v v v C v v v v v v v m N D C E ! ^ ^ F E ! ^ D ! ^ Q ! ! ! Q E Y E Q Y Y N N N C N C v v v ",
"v v v v v v v v v v v b v x v v v v v v v v v v v v v v v N N C F ! ! ! ! ! ! ! ! ! E Q ! C N Q E Q ! E E Y N E N Q C U b b U b ",
"N v v N v v v v v v v v v v v v x v v v v x v v v v v v N N C N C D E ^ ^ D Q F F D F D D D D D Y E N Q E E N E E E E Y Y E E v ",
"v v v v v v v v v v v m v v v x v v v v v v v b C v v v m m N C N E D E D Q B D D D D D C D D D D Q Q E Y E E E E E E E E Y b E ",
"v v v k v v x v x v x x x x v v b b b v v v v v v v v v v N B N N Q D D Q N B D D D D B C D D D E D N E N C E N N Y E N Y v v v ",
"v v v v v l k v v x v x m v v b m v v v v v v v v v v m v N N C N B B N D Q B B N B D D D D C C D D D E E E E N Y N N N v v v v ",
"v v M M v x v v x x m m b m m m x b v v v v v v v v v v v N N N B B B B D N D D D D N D D D D D D N C Q Q N Q Q Y Y Y N N N v N ",
"N M M M v v v v b m x x m x m x b x x v v v v v v b v v N N N C N B Q B B D B D D D D D D D D D D D Q C Q Q N N N N N M N v v v ",
"N U M M m v v v v m x b m m m m v v v v v v v v v b v v N N N C D N B Y Y D B Q D D D Q N D N D N D N Q Y N N B N N v N Y v N v ",
"N k M M v v b v x m b x m x v m b v v v x v v v v v v v N N N N N Q D B B Q Q D Q Q Y D N Q D N N N N N N D N N N N Y v v v M N ",
"N M M v v v M M M v k v M v v M v m x v x M x M v v v v v C N N B Y Y B Y Q Q Y Q Y Q Y B Y B Y D Y N B D N N B N N N N v v v M ",
"N v v v v U k v M v v U v M x n v x v v M x v v v v v v v N D N Q Q V B Y Q V B B Q B Y Q Y B Y Q N N B N B B N Y N M M N M v M ",
"v M v v v v v U v v v v v M M v v v v v k v x M x v v v N N C N N B Q B Y V B Q B Q B B B B Y M B N N N m B N m N N M M N N N N ",
"N v M N M v v M M v v v v v x v v v k v v x v v v v v v v N C N N D N Y Y Y Q B B N Y B B Y B M B B N B N N N m M N N M M N N v ",
"v M M Y M k U N M M v M v Y k v x k v v v x v v v v v v N N N Q Y B B Q Y Y Y Y Y Y B Q B B N Q B N V M M M m m v M M Y N N N N ",
"Y v M v M M N N M U M v v v U v v v v v v v x v v v v v m N N N B Y Q B Q V Y B V Y B Y N N B m m N M M M M m V M M M M N N M v ",
"k U v M M M v M v v v k M v v v v v k v x v v v v x v v v N N Q B Q B V Y Y B Y Y B Y N V N N N N M M M v v m x M M M v M M M v ",
"M M v Y k v v k v U k M M M M v v x M l v v k v v v v v v N C N Q B Y B B Y Y B B B B B B N B B M M M M v m v V M M v k M v M M ",
"M M v M M M M k U M M M M M M k v k v v v v l v k v v v v m C N N B B B Q D B B N D N V m N N N m m N V m m B N v M M M v m M M ",
"M M M M M M M M M M M M v v v v l M v x v k v v v v v v m N N C B Q B Y B N B B V D m D N m C N V M M B V m M m M M M v m v M V ",
"v M M M M M M M M M k U M v k M v v v v x x v v v v v v v N Y N B B Q Q Q B Q B B B B V C D V m M M B B V N N m M V M V m m x m ",
"M M M M M B M B M M M M U U k M v v v k v v k k c v x v v N N N Y B B V n B B Q D B B B B B m C V V B N V m B N M v M v m m m V ",
"M M V N N Y Y M B B B B U M M M U v v v v v v v x v v v v v N Y Q B B V B B B Q V Q B Q Q N U Q m B B V B B V n M B D B v m V N ",
"M M m N M M M B B B M B V M M U N M v k M l l v l v v v v v N E B B B D D Q F B D V Q B N  .| L ) _ Q B B N B Q V n N B V N M M ",
"n m m V B B B M B U B B M M M U M M v v M v x U M v v v N N Y N D B B D B D B n V Q Q V Q N < < o z U } _ Y B B B B B B N N M M ",
"V N N N B B B B B B M B M M M k M M M M M k v k v k v v v N N N B B Q B B D D Q Q B D Q } f 2 9 $ = , o j Y ) } Y n n B B V V V ",
"B B N N N N N N Y B N N N N N Y M M v M U v v v v v v v M N N Q Q N B S S S S n M N B D ) > 8 4 w : : - * & e g H N V B V V Y V ",
"B B B Y N C N b N B B Q Y N N v M M v v k v v k l v v v m N D B B B B F S S B Q H B Q ( k * 6 * > u < < w $ O % | N B N Y Y B Y ",
"m l v v v v x c M l l l l l c c M M Y N U N v v v v v N N N B D B B D Q Q C Q D D D C ) ..5 X.% - X.u @ # + f P I U l U c c l v ",
"<.<.<.<.<.<.6.6.6.6.,.>.:.:.J G k L L c l v v v v v M N N N N N B D B B B Y H B N G Q P ; 7 X.- = ; 7 = ..;.F.1.,.,.<.<.,.<.<.,.",
"V.c.x.x.x.x.M.M.M.M.V.V.C.x.m.i.6.,.:.| N l L d l l l l c c v N Y Y D Q Q Q N Q Y I P h @ 7 a @ 5 + ; 4.^.A.M.c.x.c.c.c.V.V.M.V.",
"y.k.t.t.p.t.t.s.p.t.p.t.t.y.k.z.M.V.V.n.i.6.>.J H H V V V V m N Y Y N N N N U Y ' K >.X.p t 3 t I.. 0 /.e.y.t.t.b.t.b.t.9.m.p.t.",
"t.t.t.t.t.t.t.t.t.y.k.t.t.t.t.t.s.4.p.y.b.M.x.k.b.b.2.t.i.i.2.6.6.6.6.6.6.6.6.2.r.z.v.Z.H.f.t.d.I.o.  t.Z.s.t.t.t.t.t.t.t.t.5.t.",
"t.t.t.t.y.p.t.t.t.b.t.t.y.r.y.y.t.p.p.4.t.r.r.t.t.t.t.t.t.t.k.k.k.x.x.x.x.x.x.M.z.y.y.t.e.t.t.t.3.Y.X X C.&.-.t.t.t.t.k.t.t.t.t.",
"t.5.t.t.t.t.t.t.t.t.t.y.r.t.t.r.t.2.i.t.t.r.i.t.i.t.r.r.r.r.r.5.t.t.t.t.k.t.t.t.t.t.t.5.t.t.e.t.t.e.%.q &.-.3.s.t.t.5.t.t.t.t.5.",
"t.5.5.5.t.t.r.5.e.t.r.e.r.t.t.t.5.t.t.3.3.i.i.r.r.r.r.r.r.r.2.t.t.e.y.t.t.t.t.t.t.e.t.y.t.5.t.t.t.t.b.B.t.b.t.t.t.5.t.t.t.t.e.t.",
"p.t.t.b.y.k.p.p.m.e.e.r.e.r.t.e.t.t.3.y.3.t.t.r.r.r.r.r.r.r.t.t.t.y.y.e.t.t.t.t.e.t.t.5.t.t.t.y.e.s.t.s.t.k.s.k.b.s.t.t.t.t.t.t.",
"3.3.3.3.3.3.3.-.3.&.h.i.y.y.i.t.t.t.p.3.t.2.r.r.w.w.2.r.r.2.r.p.k.t.y.t.t.t.y.t.s.t.t.k.t.y.t.t.t.t.y.3.5.5.-.-.-.*.-.-.-.3.-.-.",
"3.-.-.-.-.*.*.-.+.-.-.$.$.$.$.3.r.t.t.r.i.i.t.t.i.r.r.r.r.r.r.r.y.b.s.s.b.s.t.y.t.e.e.+.+.+.@.@.#.#.-.%.%.%.+.-.-.-.3.3.3.3.3.-.",
"t.k.t.t.t.y.t.t.s.t.t.5.3.3.3.-.$.$.$.#.-.-.3.3.w.t.r.t.i.r.5.t.e.3.e.e.e.-.-.$.-.-.@.3.3.3.w.w.3.w.w.w.t.t.s.b.y.s.y.y.y.t.b.k.",
"s.b.s.s.b.y.t.y.t.t.t.s.p.i.s.s.y.3.3.5.3.$.$.$.$.$.3.3.3.3.3.r.e.e.t.5.e.w.e.y.5.t.t.b.m.b.b.b.m.b.b.m.m.m.m.s.m.b.s.b.b.m.b.s.",
"b.m.m.m.m.t.p.y.t.t.t.s.s.b.s.m.d.m.m.d.m.s.s.i.i.t.r.t.i.i.s.a.b.m.b.s.b.m.m.t.9.s.s.m.N.m.N.N.N.N.N.m.m.m.d.m.m.m.m.m.b.b.m.b.",
"m.m.m.m.m.m.m.s.z.s.y.k.p.m.s.s.s.s.t.t.i.b.s.a.d.s.i.s.s.s.i.s.b.m.m.N.N.m.N.m.m.m.B.N.m.N.N.N.m.N.N.m.m.N.N.b.N.m.m.m.m.b.m.b.",
"m.m.s.m.m.b.m.b.m.s.m.9.k.b.b.y.y.y.t.t.t.t.5.O.*.a.t.p.i.s.s.m.N.N.N.N.C.N.N.N.B.B.B.B.M.N.Z.N.C.N.C.N.M.n.B.N.N.N.N.N.N.M.s.C.",
"N.N.N.N.N.N.N.m.m.m.m.N.m.k.p.y.t.b.t.s.t.4.p.O.=.i.r.i.t.i.s.s.N.N.Z.B.Z.N.B.B.B.B.B.B.B.B.B.B.Z.C.C.B.B.m.A.B.C.N.N.N.N.N.Z.Z.",
"N.N.B.N.N.Z.N.m.Z.N.x.m.Z.N.m.b.t.y.t.i.5.=.t.a.a.t.t.i.s.i.s.C.N.N.N.N.Z.C.C.A.A.S.B.T.A.B.P.P.C.B.A.B.A.Z.N.Z.N.C.B.B.B.N.B.N.",
"N.N.N.N.N.N.N.M.s.N.N.N.m.M.s.s.b.s.y.s.s.i.t.i.t.r.t.i.t.i.b.m.N.N.B.C.B.T.P.P.P.L.P.P.P.A.P.P.J.B.A.L.A.C.B.Z.A.B.B.A.C.B.N.N.",
"N.B.B.A.N.M.N.m.N.C.N.Z.Z.Z.m.m.N.d.b.N.U.G.s.N.i.t.r.t.t.t.i.s.m.N.N.A.A.P.A.P.P.Z.J.A.P.J.B.B.n.B.A.n.B.C.B.B.M.B.B.B.B.A.C.A.",
"M.B.s.a.A.B.x.m.C.N.Z.s.N.Z.m.b.d.m.L.9.: O.5.9.b.s.f.s.t.t.t.t.t.b.N.S.P.P.T.T.P.T.T.J.B.P.B.B.N.u.A.m.N.B.N.N.n.B.C.N.M.N.N.N.",
"N.M.a.i.M.m.m.m.N.m.M.m.N.N.m.k.0.n.U.B.7.0.n.m.L.n.9.t.i.i.i.s.s.N.A.A.B.C.A.T.P.T.P.A.P.P.B.B.A.d.P.P.L.A.B.A.Z.C.N.A.B.N.N.N.",
"Z.m.B.C.m.m.m.m.m.b.n.l.A.A.l.n.B.J.P.I.^.I.L.I.Q.0.6 4.G.p.N.N.B.A.S.L.A.A.S.P.J.T.T.S.B.P.A.d.B.S.L.A.B.Z.N.N.Z.B.N.C.N.C.m.Z.",
"s.m.k.s.s.m.m.m.Z.A.P.B.P.S.I.P.Z.L.B.C.B.B.N.N.L.n.0.n.N.p.J.B.A.A.P.P.P.P.T.S.P.T.B.T.T.T.L.L.N.P.B.A.J.C.b.t.y.b.m.b.k.b.b.s.",
"y.y.k.s.G.m.C.A.A.P.A.A.Z.A.B.B.B.J.B.B.B.J.N.N.s.L.L.L.N.N.N.J.P.P.P.P.P.P.P.S.T.P.P.T.J.G.P.A.A.L.c.c.J.B.M.N.b.t.y.t.k.t.s.y.",
"8.h.H.j.g.A.P.A.A.C.A.Z.Z.B.B.B.L.N.B.B.N.B.d.N.N.N.L.G.9.J.B.S.P.T.T.S.T.E.E.P.J.T.P.D.N.d.C.A.J.B.J.J.J.B.N.J.B.b.b.s.k.y.t.y.",
"x.z.d.l.s M.N.z.x.A.C.Z.N.m.B.N.N.N.N.N.N.N.N.d.m.N.N.p.L.N.J.P.P.P.A.A.T.T.I.T.J.T.J.J.P.T.N.J.P.B.S.B.A.Z.B.B.B.Z.N.b.k.m.s.m.",
"s.d.m.b.G.m.m.z.h.s.s.m.B.P.I.E.S.A.C.P.L.J.m.N.d.N.p.L.N.N.J.J.P.A.A.A.P.E.T.P.Y.T.B.L.P.J.J.B.J.P.B.J.Z.P.B.B.N.Z.m.s.m.m.m.m.",
"s.N.N.m.b.b.b.N.L.P.S.S.W.W.W.R.R.T.T.W.E.T.B.N.N.p.L.N.L.N.B.J.P.T.T.T.Q.E.!.W.q.P.!.P.T.T.T.Q.T.B.J.J.A.B.B.N.N.N.Z.N.N.N.d.s.",
"P.n.m.N.n.A.D.W.W.W.W.E.D.T.T.T.D.W.W.W.W.W.K.J.J.L.n.G.N.m.B.T.!.E.!.E.~.~.I.P.q.K.!.~.Q.Q.Q.Q.T.c.J.P.T.T.T.D.D.R.W.T.D.D.S.B."
};
